<?xml version="1.0" encoding="utf-8"?>
<!-- Generator: Adobe Illustrator 15.0.0, SVG Export Plug-In . SVG Version: 6.00 Build 0)  -->
<!DOCTYPE svg PUBLIC "-//W3C//DTD SVG 1.1//EN" "http://www.w3.org/Graphics/SVG/1.1/DTD/svg11.dtd">
<svg version="1.1" id="Layer_1" xmlns="http://www.w3.org/2000/svg" xmlns:xlink="http://www.w3.org/1999/xlink" x="0px" y="0px"
	 width="61.426px" height="61.426px" viewBox="-14.713 -14.713 61.426 61.426"
	 enable-background="new -14.713 -14.713 61.426 61.426" xml:space="preserve">
<path fill="#FF9100" d="M39.63,18.907V13l-7.062-2.941c-0.196-0.554-0.403-1.09-0.657-1.616l2.852-7.096L30.584-2.83l-7.032,2.896
	c-0.537-0.26-1.085-0.478-1.65-0.681L18.907-7.63h-5.906l-2.92,6.991C9.493-0.43,8.927-0.212,8.368,0.055L1.347-2.767L-2.83,1.41
	l2.862,6.958c-0.278,0.571-0.502,1.153-0.716,1.754l-6.946,2.97V19l6.952,2.896c0.214,0.601,0.444,1.183,0.72,1.754l-2.809,7.004
	L1.41,34.83l6.976-2.873c0.56,0.266,1.131,0.479,1.718,0.681l2.988,6.992H19l2.925-7.026c0.56-0.208,1.113-0.428,1.643-0.681
	l7.085,2.838l4.176-4.177l-2.908-7.05c0.249-0.529,0.451-1.067,0.647-1.615L39.63,18.907z M15.955,24.861
	c-4.892,0-8.861-3.969-8.861-8.861c0-4.892,3.97-8.861,8.861-8.861c4.891,0,8.861,3.97,8.861,8.861
	C24.815,20.893,20.846,24.861,15.955,24.861z"/>
</svg>
