<?xml version="1.0" encoding="utf-8"?>
<!-- Generator: Adobe Illustrator 15.0.0, SVG Export Plug-In . SVG Version: 6.00 Build 0)  -->
<!DOCTYPE svg PUBLIC "-//W3C//DTD SVG 1.1//EN" "http://www.w3.org/Graphics/SVG/1.1/DTD/svg11.dtd">
<svg version="1.1" id="Layer_1" xmlns="http://www.w3.org/2000/svg" xmlns:xlink="http://www.w3.org/1999/xlink" x="0px" y="0px"
	 width="306.536px" height="151.633px" viewBox="0 0 306.536 151.633" enable-background="new 0 0 306.536 151.633"
	 xml:space="preserve">
<g>
	<path fill="#0A567A" d="M252.506,139.733c-0.223,1.168-0.42,2.312-0.588,3.43c-0.666,2.063-2.508,3.096-5.521,3.096
		c-2.567,0-3.851-1.34-3.851-4.021c0-2.057,1.729-3.091,5.189-3.091C249.519,139.147,251.112,139.338,252.506,139.733
		 M271.424,88.42c-3.122,5.748-5.411,10.605-6.866,14.564c-1.838,5.079-2.815,10.321-2.931,15.734
		c-0.053,2.064-0.553,3.824-1.502,5.273c-1.117,1.732-2.651,2.514-4.608,2.344l-2.17-0.166l-0.091-2.68
		c-0.053-1.509,2.488-9.932,7.623-25.277c0.332-1.228,0.918-3.08,1.754-5.567c0.841-2.481,1.845-3.944,3.017-4.392
		c0.613-0.227,1.312-0.336,2.095-0.336C268.524,87.918,269.75,88.084,271.424,88.42"/>
	<path fill="#0A567A" d="M168.947,117h0.007c0.84-2.096,1.938-4.232,3.312-6.414c3.603-5.647,6.122-9.547,7.573-11.7
		c2.551-3.896,4.024-7.044,4.426-9.442c-0.4-0.9-0.727-1.475-0.977-1.729c-0.097-0.098-0.601-0.396-1.5-0.898
		c-0.847,0.402-1.375,0.751-1.572,1.047c-1.351,2.051-2.875,4.854-4.578,8.405c-2.35,4.846-3.776,7.746-4.271,8.694
		c-6.504,12.055-10.676,19.828-12.523,23.324c-4.301,8.146-6.452,12.752-6.452,13.797v1.728c3.75,0,5.899-0.931,6.452-2.771
		c0.396-1.303,1.072-3.959,2.023-7.955C161.68,129.731,168.947,117,168.947,117"/>
	<path fill="#0A567A" d="M251.812,89.551c-0.774-0.528-1.342-0.812-1.703-0.833c-2.444-0.134-5.635-0.04-9.562,0.267
		c-5.368,0.406-8.594,0.633-9.659,0.684c-1.144,0.035-2.201,0.07-3.275,0.105c0.021-0.104,0.068-0.229,0.082-0.33
		c-0.401-0.9-0.728-1.475-0.978-1.729c-0.098-0.098-0.6-0.396-1.5-0.898c-0.848,0.402-1.375,0.751-1.573,1.047
		c-0.406,0.618-0.834,1.327-1.271,2.078c-8.889,0.293-14.893,0.504-17.949,0.629c-9.2,0.378-14.266,0.83-15.17,1.357l-1.489,0.869
		c1.881,3.24,3.771,4.634,5.639,4.182c1.32-0.312,3.959-1.062,7.896-2.249c3.303-0.987,17.967-1.101,17.967-1.101v0.004
		c0.375-0.055,0.781-0.068,1.168-0.111c-0.445,0.863-0.898,1.768-1.365,2.747c-2.346,4.846-3.773,7.746-4.271,8.694
		c-6.502,12.055-10.672,19.828-12.521,23.324c-4.301,8.146-6.45,12.752-6.45,13.797v1.728c3.747,0,5.899-0.931,6.45-2.771
		c0.396-1.303,1.072-3.959,2.022-7.955c0.812-3.354,8.082-16.086,8.082-16.086h0.007c0.838-2.095,1.938-4.231,3.311-6.412
		c3.603-5.648,6.121-9.547,7.574-11.701c1.367-2.094,2.403-3.953,3.153-5.614c0.021,0.003,0.031,0,0.052,0
		c6.694,0.274,11.33,0.49,13.924,0.664c4.647,0.245,8.111-0.065,10.388-0.92c0.573-0.808,0.909-1.373,1-1.715
		C251.821,91.167,251.827,90.581,251.812,89.551"/>
</g>
<g>
	<g>
		<g>
			<path fill="#FFFFFF" d="M100.196,51.002c0,5.054-3.657,9.014-10.969,11.857c-5.541,2.15-11.374,3.226-17.505,3.226
				c-12.852,0-19.274-3.172-19.274-9.518c0-4.516,4.194-8.897,12.58-13.15c7.475-3.761,13.764-5.642,18.877-5.642
				c4.515,0,8.251,1.048,11.21,3.143C98.504,43.285,100.196,46.646,100.196,51.002 M95.761,50.519c0-2.637-1.345-4.626-4.033-5.972
				c-2.151-1.074-4.68-1.613-7.583-1.613c-4.84,0-9.869,1.346-15.082,4.034c-5.486,2.741-9.411,6.103-11.775,10.083
				c3.656,3.711,8.037,5.568,13.145,5.568c4.895,0,9.922-0.89,15.084-2.662C92.343,57.587,95.761,54.446,95.761,50.519"/>
			<path fill="#FFFFFF" d="M168.596,48.906c0,5.644-3.358,10.272-10.082,13.871c-5.592,2.957-11.535,4.438-17.826,4.438
				c-4.786,0-8.548-1.638-11.29-4.92l-1.693-2.179c-0.756,0.107-4.276,1.533-10.568,4.276c-2.579,1.127-4.837,1.693-6.778,1.693
				c-5.592,0-8.384-1.693-8.384-5.084c0-1.503,2.488-5.523,7.457-12.057c4.975-6.535,8.028-9.8,9.157-9.8
				c0.806,0,1.507,0.352,2.096,1.049c0.592,0.703,0.886,1.451,0.886,2.259c0,1.938-2.82,5.833-8.467,11.695
				c-3.064,3.173-4.973,5.377-5.727,6.614c1.934,1.13,3.332,1.692,4.192,1.692c5.164,0,9.572-1.61,13.231-4.836
				c2.581-2.257,5.404-6.133,8.468-11.617c0.216,0.27,2.635,1.853,2.741,2.018c0.272,0.377,0.408,0.914,0.408,1.611
				c0,1.026-0.378,2.517-1.132,4.48c-0.756,1.962-1.13,3.428-1.13,4.394c0,1.613,0.971,2.877,2.907,3.792
				c1.506,0.701,3.169,1.044,4.997,1.044c6.293,0,11.563-1.53,15.812-4.595c4.838-3.437,7.258-8.172,7.258-14.197
				c0-1.559-0.213-2.74-0.644-3.545c-0.325-0.594-1.13-1.48-2.421-2.663c-0.967,0-1.991-0.537-3.068-1.613l1.129-1.292
				c2.744,0,4.922,1.613,6.539,4.838C167.95,42.854,168.596,45.733,168.596,48.906"/>
			<path fill="#FFFFFF" d="M218.683,51.002c0,5.054-3.653,9.014-10.97,11.857c-5.536,2.15-11.373,3.226-17.504,3.226
				c-12.853,0-19.276-3.172-19.276-9.518c0-4.516,4.198-8.897,12.583-13.15c7.477-3.761,13.766-5.642,18.877-5.642
				c4.516,0,8.252,1.048,11.212,3.143C216.989,43.285,218.683,46.646,218.683,51.002 M214.245,50.519
				c0-2.637-1.341-4.626-4.029-5.972c-2.148-1.074-4.68-1.613-7.58-1.613c-4.84,0-9.871,1.346-15.083,4.034
				c-5.488,2.741-9.412,6.103-11.779,10.083c3.66,3.711,8.041,5.568,13.147,5.568c4.895,0,9.92-0.89,15.086-2.662
				C210.831,57.587,214.245,54.446,214.245,50.519"/>
			<path fill="#FFFFFF" d="M253.931,47.616l-12.662-4.117c-3.124,0-5.865,2.125-8.228,6.375c-0.864,1.448-2.301,4.876-4.315,10.278
				c-2.022,5.408-5.259,8.108-9.72,8.108c0.27-2.205,1.666-5.242,4.193-9.114c2.74-4.194,4.381-7.285,4.92-9.272
				c0.433-1.669,0.728-4.411,0.887-8.234c0.053-1.607,0.431-3.276,1.129-4.996c0.969-2.421,2.068-3.685,3.31-3.794l1.531,0.083
				l0.806,5.483c0.379,1.398,1.645,2.099,3.791,2.099h2.744c0.48-0.056,0.857-0.083,1.127-0.083
				C249.625,40.328,253.125,42.72,253.931,47.616"/>
			<path fill="#FFFFFF" d="M301.682,29.546c0,2.957-1.969,5.699-5.891,8.229c-2.26,1.449-6.025,3.131-11.293,5.041
				c-5.271,1.905-8.924,3.532-10.971,4.876l-0.887,1.859c0.324,2.204,1.934,6.721,4.842,13.551
				c2.793,6.451,4.191,10.104,4.191,10.967c0,2.205-1.428,3.87-4.275,5c-0.593-2.742-2.393-7.258-5.4-13.551
				c-3.392-7.152-5.891-11.049-7.506-11.693c-1.021,4.305-1.746,7.153-2.177,8.548c-0.591,1.989-2.901,2.985-6.935,2.985v-1.856
				c0-1.128,2.309-6.073,6.935-14.838c1.988-3.768,6.479-12.127,13.472-25.086c0.539-1.022,2.068-4.143,4.597-9.357
				c1.827-3.817,3.471-6.827,4.923-9.034c0.214-0.321,0.781-0.697,1.693-1.128c0.967,0.54,1.502,0.861,1.611,0.967
				c0.27,0.271,0.617,0.888,1.053,1.856c-0.436,2.581-2.017,5.969-4.765,10.162c-1.56,2.31-4.276,6.51-8.146,12.583
				c-2.903,4.625-4.703,9.062-5.403,13.308c2.745-0.695,5.864-1.85,9.356-3.465c2.959-1.454,5.94-2.903,8.957-4.359
				c3.76-2.796,7.553-5.59,11.369-8.385C301.245,27.691,301.463,28.632,301.682,29.546"/>
		</g>
	</g>
	<path fill="#FFFFFF" d="M62.104,65.585l-14.998,3.922c-5.738,1.25-10.851,1.871-15.343,1.871C16.657,71.378,9.1,65.927,9.1,55.021
		c0-5.227,2.442-11.332,7.332-18.321c4.087-5.85,8.659-10.733,13.717-14.658c6.136-4.772,11.587-7.152,16.358-7.152
		c6.931,0,10.398,3.264,10.398,9.796c0,1.082-0.398,4.601-1.193,10.565c-1.819-0.284-2.9-0.508-3.236-0.682
		c-0.63-0.34-1.308-1.162-2.046-2.47c0.794-3.18,1.192-5.622,1.192-7.329c0-3.18-1.762-4.772-5.283-4.772
		c-4.831,0-10.028,2.357-15.595,7.074c-4.489,3.865-8.295,8.322-11.419,13.377c-3.522,5.681-5.278,10.733-5.278,15.169
		c0,4.374,2.1,7.697,6.301,9.967c3.352,1.82,7.417,2.729,12.188,2.729c2.666,0,5.849-0.199,9.543-0.598
		c1.302-0.111,18.09-4.002,19.167-4.174C61.591,64.052,61.877,64.735,62.104,65.585"/>
</g>
</svg>
