<?xml version="1.0" encoding="utf-8"?>
<!-- Generator: Adobe Illustrator 15.0.0, SVG Export Plug-In . SVG Version: 6.00 Build 0)  -->
<!DOCTYPE svg PUBLIC "-//W3C//DTD SVG 1.1//EN" "http://www.w3.org/Graphics/SVG/1.1/DTD/svg11.dtd">
<svg version="1.1" id="Layer_1" xmlns="http://www.w3.org/2000/svg" xmlns:xlink="http://www.w3.org/1999/xlink" x="0px" y="0px"
	 width="416.773px" height="400px" viewBox="0 0 416.773 400" enable-background="new 0 0 416.773 400" xml:space="preserve">
<g>
	<g>
		<g>
			<defs>
				<path id="SVGID_1_" d="M172.045,397.699c0.963-0.143,1.935-0.311,2.902-0.467c5.287,0.54,10.639,0.813,16.056,0.809
					c-2.057,0.07-4.115,0.104-6.173,0.104C180.569,398.145,176.305,397.997,172.045,397.699 M244.738,389.964
					c1.871-0.075,3.731-0.172,5.575-0.302c-0.259,0.043-0.515,0.097-0.773,0.141c-2.646,0.455-5.287,0.849-7.923,1.196
					C242.661,390.666,243.703,390.323,244.738,389.964 M379.407,310.699c6.121-7.295,11.587-15.219,16.332-23.749
					c-5.807,12.86-13.773,25.264-24.212,36.905c-1.757,1.967-3.572,3.892-5.424,5.792
					C370.942,323.651,375.385,317.318,379.407,310.699 M406.534,203.175c3.103,21.642,2.212,43.767-3.93,65.09
					c-0.627,1.539-1.266,3.07-1.936,4.596c-4.197,9.528-9.22,18.415-14.994,26.626C400.494,270.631,407.868,237.295,406.534,203.175
					 M6.389,181.722c-0.842,11.085-0.688,21.796,0.397,32.116c0,0,0,0,0-0.001c-1.26,4.792-2.344,9.57-3.258,14.326
					C2.502,212.711,3.439,197.096,6.389,181.722 M406.708,193.472c2.193-7.346,3.985-14.672,5.369-21.946
					c4.855,27.888,3.478,55.596-4.137,81.423C411.289,233.202,410.567,213.058,406.708,193.472 M218.742,2.746
					c8.641-0.937,17.396-1.144,26.196-0.535c-4.301,0.607-8.619,1.326-12.959,2.192c0.01,0.004,0.019,0.006,0.029,0.008
					C227.596,3.706,223.169,3.148,218.742,2.746 M209.612,2.13C117.64-1.985,26.041,57.67,8.47,164.361
					c-0.107,0.645-0.193,1.283-0.292,1.923c-6.356,22.566-8.235,45.939-5.859,68.837c-7.182,45.792,2.162,88.979,30.131,120.495
					c31.013,34.951,78.984,48.874,131.333,43.129c22.816,2.616,45.901,0.933,67.981-4.861c5.988-0.503,12.024-1.266,18.082-2.308
					c6.708-1.149,13.356-2.631,19.922-4.402c32.736-6.076,60.553-21.202,82.384-42.267c7.449-6.162,14.397-12.788,20.722-19.845
					c15.471-17.256,25.589-36.167,31.316-55.753c12.994-31.898,15.913-67.371,8.803-102.964c7.583-46.3-1.663-90.027-29.91-121.861
					c-30.675-34.57-77.947-48.577-129.63-43.317C247.277,0.378,241.116,0,234.991,0C226.445,0,217.968,0.737,209.612,2.13"/>
			</defs>
			<clipPath id="SVGID_2_">
				<use xlink:href="#SVGID_1_"  overflow="visible"/>
			</clipPath>
			<g opacity="0.6" clip-path="url(#SVGID_2_)">
				<g>
					<defs>
						<rect id="SVGID_3_" x="5.84" y="1.909" width="400.852" height="388.226"/>
					</defs>
					<clipPath id="SVGID_4_">
						<use xlink:href="#SVGID_3_"  overflow="visible"/>
					</clipPath>
					<g clip-path="url(#SVGID_4_)">
						<defs>
							<path id="SVGID_5_" d="M181.854,382.663c209.304,54.988,306.937-207.261,140.829-338.467
								C210.183-44.657,33.604,11.753,8.471,164.361C-9.998,276.487,70.994,353.546,181.854,382.663"/>
						</defs>
						<clipPath id="SVGID_6_">
							<use xlink:href="#SVGID_5_"  overflow="visible"/>
						</clipPath>
						
							<linearGradient id="SVGID_7_" gradientUnits="userSpaceOnUse" x1="-212.5898" y1="497.6284" x2="-211.5106" y2="497.6284" gradientTransform="matrix(-1099.1486 1134.7167 -1134.7167 -1099.1486 331701.0625 787913)">
							<stop  offset="0" style="stop-color:#FFFFFF"/>
							<stop  offset="0.2022" style="stop-color:#FFDE3D"/>
							<stop  offset="0.4101" style="stop-color:#EE761D"/>
							<stop  offset="0.6124" style="stop-color:#D4161A"/>
							<stop  offset="1" style="stop-color:#3E1315"/>
						</linearGradient>
						<polygon clip-path="url(#SVGID_6_)" fill="url(#SVGID_7_)" points="231.457,-293.925 -251.029,204.174 247.337,686.917 
							729.823,188.819 						"/>
					</g>
				</g>
			</g>
			<g opacity="0.6" clip-path="url(#SVGID_2_)">
				<g>
					<defs>
						<rect id="SVGID_8_" x="24.818" y="47.117" width="365.897" height="350.923"/>
					</defs>
					<clipPath id="SVGID_9_">
						<use xlink:href="#SVGID_8_"  overflow="visible"/>
					</clipPath>
					<g clip-path="url(#SVGID_9_)">
						<defs>
							<path id="SVGID_10_" d="M352.982,106.378C252.206-13.083-2.612,53.698,27.233,256.044
								c15.826,107.333,146.789,193.853,268.964,105.479C385.962,296.583,425.719,192.598,352.982,106.378"/>
						</defs>
						<clipPath id="SVGID_11_">
							<use xlink:href="#SVGID_10_"  overflow="visible"/>
						</clipPath>
						
							<linearGradient id="SVGID_12_" gradientUnits="userSpaceOnUse" x1="-212.5903" y1="497.6362" x2="-211.5112" y2="497.6362" gradientTransform="matrix(-1099.1338 1134.7014 -1134.7014 -1099.1338 331702.5625 787907.3125)">
							<stop  offset="0" style="stop-color:#FFFFFF"/>
							<stop  offset="0.2022" style="stop-color:#FFDE3D"/>
							<stop  offset="0.4101" style="stop-color:#EE761D"/>
							<stop  offset="0.6124" style="stop-color:#D4161A"/>
							<stop  offset="1" style="stop-color:#3E1315"/>
						</linearGradient>
						<polygon clip-path="url(#SVGID_11_)" fill="url(#SVGID_12_)" points="204.735,-227.141 -233.985,225.776 218.372,663.954 
							657.092,211.038 						"/>
					</g>
				</g>
			</g>
		</g>
		<g>
			<defs>
				<path id="SVGID_13_" d="M163.714,119.04c-69.794,61.932-90.392,152.688-46.005,202.707
					c44.383,50.018,136.942,40.359,206.737-21.572c69.794-61.932,90.393-152.685,46.011-202.707
					c-19.114-21.538-47.155-32.01-78.469-32.009C250.582,65.46,203.453,83.775,163.714,119.04"/>
			</defs>
			<clipPath id="SVGID_14_">
				<use xlink:href="#SVGID_13_"  overflow="visible"/>
			</clipPath>
			<g opacity="0.6" clip-path="url(#SVGID_14_)">
				<g>
					<defs>
						<rect id="SVGID_15_" x="71.885" y="50.307" width="331.309" height="333.75"/>
					</defs>
					<clipPath id="SVGID_16_">
						<use xlink:href="#SVGID_15_"  overflow="visible"/>
					</clipPath>
					<g clip-path="url(#SVGID_16_)">
						<defs>
							<path id="SVGID_17_" d="M129.33,103.808C-0.841,214.49,109.581,441.832,267.634,370.45
								c101.846-46.009,184.181-202.406,102.07-283.291C309.361,27.741,198.269,45.181,129.33,103.808"/>
						</defs>
						<clipPath id="SVGID_18_">
							<use xlink:href="#SVGID_17_"  overflow="visible"/>
						</clipPath>
						
							<linearGradient id="SVGID_19_" gradientUnits="userSpaceOnUse" x1="-212.5903" y1="497.6323" x2="-211.5103" y2="497.6323" gradientTransform="matrix(-1135.7085 1172.4597 -1172.4597 -1135.7085 342746.375 814130.5)">
							<stop  offset="0" style="stop-color:#FFFFFF"/>
							<stop  offset="0.2022" style="stop-color:#FFDE3D"/>
							<stop  offset="0.4101" style="stop-color:#EE761D"/>
							<stop  offset="0.6124" style="stop-color:#D4161A"/>
							<stop  offset="1" style="stop-color:#3E1315"/>
						</linearGradient>
						<polygon clip-path="url(#SVGID_18_)" fill="url(#SVGID_19_)" points="218.282,-198.473 -207.782,241.377 232.692,668.044 
							658.755,228.194 						"/>
					</g>
				</g>
			</g>
		</g>
		<g>
			<defs>
				<path id="SVGID_20_" d="M78.151,363.535c-81.218-58.927-99.333-172.925-40.405-254.129
					c58.919-81.2,172.914-99.321,254.12-40.395c39.337,28.543,65.203,70.7,72.834,118.691c7.63,48.001-3.892,96.101-32.431,135.43
					c-35.553,48.988-91.161,75.02-147.508,75.021C147.716,398.157,110.356,386.907,78.151,363.535 M36.288,108.348
					c-13.072,18.015-22.393,37.634-28.105,57.904c-0.001,0.011-0.003,0.021-0.004,0.032c-6.356,22.566-8.235,45.939-5.859,68.837
					c-0.002,0.013-0.004,0.027-0.006,0.041c5.211,50.141,30.86,97.96,74.774,129.827c26.426,19.178,56.305,30.275,86.643,33.763
					c0.018-0.002,0.034-0.005,0.053-0.007c22.816,2.616,45.901,0.933,67.981-4.861c0.02-0.002,0.039-0.005,0.059-0.006
					c3.314-0.87,6.611-1.835,9.876-2.889c-0.027,0.002-0.054,0.005-0.083,0.01c1.044-0.334,2.086-0.677,3.121-1.035
					c0.015,0,0.028-0.001,0.045-0.001c34.555-11.835,65.906-34.03,88.939-65.776c28.825-39.714,40.462-88.293,32.756-136.764
					c-7.707-48.475-33.829-91.044-73.549-119.867c-32.53-23.605-70.271-34.968-107.686-34.968
					C128.336,32.587,72.19,58.873,36.288,108.348"/>
			</defs>
			<clipPath id="SVGID_21_">
				<use xlink:href="#SVGID_20_"  overflow="visible"/>
			</clipPath>
			
				<linearGradient id="SVGID_22_" gradientUnits="userSpaceOnUse" x1="-212.5923" y1="497.6108" x2="-211.5138" y2="497.6108" gradientTransform="matrix(-340.7622 2.980000e-05 2.980000e-05 340.7622 -72074.5859 -169361.8125)">
				<stop  offset="0" style="stop-color:#0F5E8E"/>
				<stop  offset="1" style="stop-color:#1A88CA"/>
			</linearGradient>
			<rect x="-21.182" y="10.084" clip-path="url(#SVGID_21_)" fill="url(#SVGID_22_)" width="395.366" height="391.277"/>
		</g>
		<g>
			<defs>
				<path id="SVGID_23_" d="M80.442,297.936c-28.058-31.211-41.227-69.558-38.076-110.886c2.822-37.026,18.838-75.365,45.1-107.957
					c48.658-60.43,138.219-104.271,219.833-57.773C347.815,44.386,381.6,83.806,400,129.462
					c19.657,48.801,19.901,99.728,0.669,143.399c-0.034,0.076-0.068,0.153-0.101,0.229c-21.733,49.138-65.196,81.24-122.409,90.407
					c-10.971,1.757-22.178,2.607-33.447,2.607C182.622,366.106,118.538,340.284,80.442,297.936 M209.612,2.13
					c-0.016,0-0.037-0.001-0.055-0.002c-49.036,8.172-93.838,38.921-123.55,75.801c-26.482,32.882-42.639,71.583-45.485,108.98
					c-3.2,41.845,10.135,80.667,38.547,112.258c45.397,50.487,127.396,77.692,199.388,66.155
					c41.983-6.717,76.646-25.665,100.908-54.557c0.014-0.023,0.027-0.044,0.041-0.066c6.121-7.295,11.587-15.219,16.332-23.749
					c-0.008,0.017-0.016,0.033-0.022,0.05c2.399-4.311,4.62-8.774,6.65-13.385c0.63-1.431,1.238-2.866,1.826-4.312
					c0.101-0.246,0.199-0.491,0.298-0.735c0.001-0.004,0.004-0.011,0.006-0.014c0.25-0.624,0.494-1.242,0.737-1.867
					c0-0.002,0-0.001,0.001-0.004c0.098-0.25,0.192-0.497,0.287-0.749l0.002-0.004c11.854-31.015,14.331-65.242,7.47-99.584
					c0.001-0.006,0.001-0.011,0.002-0.016c-2.508-12.56-6.268-25.13-11.277-37.566c-18.557-46.031-52.633-85.786-93.499-109.06
					c-18.044-10.279-36.476-16.2-54.765-18.537l-0.001,0.001C247.276,0.38,241.116,0,234.991,0
					C226.445,0,217.968,0.737,209.612,2.13"/>
			</defs>
			<clipPath id="SVGID_24_">
				<use xlink:href="#SVGID_23_"  overflow="visible"/>
			</clipPath>
			
				<linearGradient id="SVGID_25_" gradientUnits="userSpaceOnUse" x1="-212.5933" y1="497.6675" x2="-211.5149" y2="497.6675" gradientTransform="matrix(349.3345 0 0 -349.3345 74306.0703 174028)">
				<stop  offset="0" style="stop-color:#0F5E8E"/>
				<stop  offset="1" style="stop-color:#1A88CA"/>
			</linearGradient>
			<rect x="37.322" y="-25.178" clip-path="url(#SVGID_24_)" fill="url(#SVGID_25_)" width="382.579" height="402.037"/>
		</g>
		<g>
			<defs>
				<path id="SVGID_26_" d="M253.454,1.168c-0.018-0.002-0.032-0.004-0.048-0.006c-2.841,0.29-5.691,0.637-8.558,1.042
					c0.03,0.002,0.06,0.004,0.09,0.007c-4.147,0.585-8.312,1.274-12.5,2.101c-0.029,0.006-0.053,0.011-0.081,0.017
					c-0.128,0.025-0.254,0.049-0.378,0.074c31.961,5.095,63.243,18.105,90.704,39.792c53.096,41.94,79.242,97.272,83.408,151.351
					c0.211-0.682,0.418-1.364,0.621-2.046c-0.002-0.009-0.004-0.019-0.005-0.029c2.193-7.346,3.985-14.672,5.369-21.946
					c0.003,0.014,0.005,0.03,0.008,0.045c0.329-1.728,0.636-3.458,0.918-5.181c-0.004-0.015-0.006-0.029-0.009-0.044
					c7.522-45.93-1.519-89.329-29.238-121.098c-0.006-0.006-0.015-0.016-0.021-0.023c-0.044-0.051-0.087-0.1-0.133-0.151
					c-0.016-0.019-0.034-0.038-0.051-0.058c-0.038-0.044-0.076-0.087-0.115-0.132c-0.029-0.033-0.055-0.061-0.082-0.094
					c-0.031-0.036-0.062-0.069-0.092-0.105c-0.061-0.068-0.118-0.132-0.179-0.2c-2.329-2.626-4.756-5.134-7.271-7.522
					c-26.108-24.792-61.954-36.868-101.569-36.87C267.416,0.093,260.475,0.453,253.454,1.168"/>
			</defs>
			<clipPath id="SVGID_27_">
				<use xlink:href="#SVGID_26_"  overflow="visible"/>
			</clipPath>
			
				<linearGradient id="SVGID_28_" gradientUnits="userSpaceOnUse" x1="-212.5488" y1="497.6831" x2="-211.4709" y2="497.6831" gradientTransform="matrix(170.2256 0 0 -170.2256 36413.1445 84816.3516)">
				<stop  offset="0" style="stop-color:#134374"/>
				<stop  offset="1" style="stop-color:#1A88CA"/>
			</linearGradient>
			<rect x="231.979" y="0.093" clip-path="url(#SVGID_27_)" fill="url(#SVGID_28_)" width="188.537" height="195.453"/>
		</g>
		<g>
			<defs>
				<path id="SVGID_29_" d="M6.786,213.838L6.786,213.838c-1.26,4.791-2.344,9.569-3.258,14.325
					c-0.001-0.009-0.001-0.019-0.002-0.025c-0.445,2.312-0.849,4.626-1.211,6.93c0.002,0.018,0.003,0.035,0.005,0.054
					c-5.862,37.377-0.714,73.017,16.585,101.993c0.009,0.016,0.014,0.026,0.023,0.041c0.032,0.052,0.063,0.104,0.095,0.157
					c0.018,0.029,0.035,0.058,0.053,0.089c0.025,0.04,0.048,0.079,0.072,0.122c0.027,0.043,0.054,0.086,0.08,0.131
					c0.018,0.029,0.034,0.057,0.052,0.085c3.713,6.136,7.971,11.965,12.791,17.447l0.003,0.004c0.061,0.07,0.118,0.134,0.179,0.204
					c0.005,0.005,0.005,0.006,0.011,0.012c0.062,0.07,0.123,0.139,0.187,0.21c31.013,34.951,78.984,48.874,131.333,43.129
					c0.03,0.005,0.06,0.008,0.091,0.011c2.716-0.299,5.445-0.65,8.182-1.056c-0.003,0-0.007,0-0.012-0.002
					c0.963-0.143,1.935-0.311,2.902-0.467c0.028,0.002,0.056,0.006,0.084,0.009c11.976-1.934,24.12-4.87,36.306-8.795
					c-9.557-1.225-19.388-3.132-29.483-5.783C88.147,358.051,15.784,299.182,6.786,213.838L6.786,213.838"/>
			</defs>
			<clipPath id="SVGID_30_">
				<use xlink:href="#SVGID_29_"  overflow="visible"/>
			</clipPath>
			
				<linearGradient id="SVGID_31_" gradientUnits="userSpaceOnUse" x1="-212.6353" y1="497.5884" x2="-211.557" y2="497.5884" gradientTransform="matrix(195.9858 0 0 -195.9858 41673.5703 97829.5625)">
				<stop  offset="0" style="stop-color:#134374"/>
				<stop  offset="1" style="stop-color:#1A88CA"/>
			</linearGradient>
			<rect x="-3.542" y="213.837" clip-path="url(#SVGID_30_)" fill="url(#SVGID_31_)" width="214.88" height="190.653"/>
		</g>
		<g>
			<defs>
				<path id="SVGID_32_" d="M172.045,397.699c0.963-0.143,1.935-0.311,2.902-0.467c5.287,0.54,10.639,0.813,16.056,0.809
					c-2.057,0.07-4.115,0.104-6.173,0.104C180.569,398.145,176.305,397.997,172.045,397.699 M244.738,389.964
					c1.871-0.075,3.731-0.172,5.575-0.302c-0.259,0.043-0.515,0.097-0.773,0.141c-2.646,0.455-5.287,0.849-7.923,1.196
					C242.661,390.666,243.703,390.323,244.738,389.964 M379.407,310.699c6.121-7.295,11.587-15.219,16.332-23.749
					c-5.807,12.86-13.773,25.264-24.212,36.905c-1.757,1.967-3.572,3.892-5.424,5.792
					C370.942,323.651,375.385,317.318,379.407,310.699 M406.534,203.175c3.103,21.642,2.212,43.767-3.93,65.09
					c-0.627,1.539-1.266,3.07-1.936,4.596c-4.197,9.528-9.22,18.415-14.994,26.626C400.494,270.631,407.868,237.295,406.534,203.175
					 M6.389,181.722c-0.842,11.085-0.688,21.796,0.397,32.116c0,0,0,0,0-0.001c-1.26,4.792-2.344,9.57-3.258,14.326
					C2.502,212.711,3.439,197.096,6.389,181.722 M406.708,193.472c2.193-7.346,3.985-14.672,5.369-21.946
					c4.855,27.888,3.478,55.596-4.137,81.423C411.289,233.202,410.567,213.058,406.708,193.472 M218.742,2.746
					c8.641-0.937,17.396-1.144,26.196-0.535c-4.301,0.607-8.619,1.326-12.959,2.192c0.01,0.004,0.019,0.006,0.029,0.008
					C227.596,3.706,223.169,3.148,218.742,2.746 M209.612,2.13C117.64-1.985,26.041,57.67,8.47,164.361
					c-0.107,0.645-0.193,1.283-0.292,1.923c-6.356,22.566-8.235,45.939-5.859,68.837c-7.182,45.792,2.162,88.979,30.131,120.495
					c31.013,34.951,78.984,48.874,131.333,43.129c22.816,2.616,45.901,0.933,67.981-4.861c5.988-0.503,12.024-1.266,18.082-2.308
					c6.708-1.149,13.356-2.631,19.922-4.402c32.736-6.076,60.553-21.202,82.384-42.267c7.449-6.162,14.397-12.788,20.722-19.845
					c15.471-17.256,25.589-36.167,31.316-55.753c12.994-31.898,15.913-67.371,8.803-102.964c7.583-46.3-1.663-90.027-29.91-121.861
					c-30.675-34.57-77.947-48.577-129.63-43.317C247.277,0.378,241.116,0,234.991,0C226.445,0,217.968,0.737,209.612,2.13"/>
			</defs>
			<clipPath id="SVGID_33_">
				<use xlink:href="#SVGID_32_"  overflow="visible"/>
			</clipPath>
			<g opacity="0.5" clip-path="url(#SVGID_33_)">
				<g>
					<defs>
						<rect id="SVGID_34_" x="49.823" y="29.658" width="360.263" height="364.949"/>
					</defs>
					<clipPath id="SVGID_35_">
						<use xlink:href="#SVGID_34_"  overflow="visible"/>
					</clipPath>
					<path clip-path="url(#SVGID_35_)" fill="#FFFFFF" d="M249.848,391.577c47.627-8.171,92.461-32.423,123.026-66.515
						c61.748-68.888,38.27-164.106-9.678-223.437c-25.835-31.969-59.343-55.307-94.335-65.713
						c-39.171-11.661-78.854-6.952-114.769,13.58C96.712,82.304,53.954,154.726,50.111,225.607
						c-3.093,57.048,18.845,105.632,61.777,136.782C149.879,389.967,198.875,400.334,249.848,391.577 M361.796,102.771
						c47.48,58.74,70.78,152.99,9.731,221.084c-30.288,33.801-74.754,57.835-121.988,65.948
						c-50.481,8.667-98.996-1.577-136.6-28.865c-42.41-30.792-64.086-78.815-61.029-135.236
						c3.809-70.309,46.199-142.119,103.085-174.644c35.477-20.285,74.668-24.924,113.352-13.422
						C302.999,47.947,336.185,71.073,361.796,102.771"/>
				</g>
			</g>
		</g>
	</g>
	<g id="it">
		<path fill="#0F5078" d="M297.209,285.79c-0.206,1.082-0.389,2.143-0.545,3.175c-0.616,1.908-2.319,2.863-5.109,2.863
			c-2.377,0-3.562-1.239-3.562-3.72c0-1.903,1.601-2.859,4.802-2.859C294.443,285.249,295.918,285.425,297.209,285.79
			 M314.718,238.3c-2.89,5.32-5.01,9.817-6.356,13.48c-1.7,4.7-2.606,9.552-2.71,14.562c-0.05,1.911-0.513,3.539-1.392,4.881
			c-1.033,1.604-2.453,2.326-4.266,2.169l-2.008-0.153l-0.083-2.48c-0.049-1.395,2.304-9.19,7.055-23.394
			c0.308-1.134,0.85-2.852,1.623-5.151c0.777-2.298,1.707-3.652,2.792-4.065c0.566-0.208,1.211-0.311,1.937-0.311
			C312.033,237.837,313.168,237.99,314.718,238.3"/>
		<path fill="#0F5078" d="M219.878,264.75h0.005c0.777-1.938,1.795-3.917,3.065-5.935c3.334-5.228,5.666-8.835,7.008-10.829
			c2.362-3.606,3.727-6.519,4.097-8.738c-0.37-0.835-0.673-1.364-0.902-1.599c-0.09-0.093-0.557-0.369-1.39-0.833
			c-0.782,0.373-1.272,0.696-1.456,0.97c-1.247,1.897-2.659,4.492-4.236,7.778c-2.174,4.485-3.495,7.169-3.952,8.047
			c-6.02,11.155-9.88,18.349-11.589,21.584c-3.983,7.541-5.974,11.804-5.974,12.771v1.598c3.471,0,5.461-0.86,5.974-2.564
			c0.363-1.204,0.992-3.664,1.872-7.361C213.151,276.534,219.878,264.75,219.878,264.75"/>
		<path fill="#0F5078" d="M296.566,239.347c-0.719-0.489-1.241-0.75-1.576-0.771c-2.264-0.124-5.216-0.037-8.848,0.247
			c-4.97,0.377-7.954,0.587-8.94,0.633c-1.059,0.032-2.037,0.065-3.031,0.098c0.021-0.095,0.062-0.212,0.074-0.305
			c-0.37-0.835-0.672-1.364-0.901-1.599c-0.092-0.093-0.557-0.369-1.389-0.833c-0.785,0.373-1.273,0.696-1.457,0.97
			c-0.376,0.571-0.771,1.228-1.175,1.923c-8.227,0.271-13.783,0.465-16.611,0.582c-8.517,0.35-13.204,0.769-14.04,1.257
			l-1.379,0.804c1.74,3,3.488,4.288,5.218,3.869c1.222-0.288,3.664-0.981,7.307-2.08c3.058-0.915,16.628-1.02,16.628-1.02v0.004
			c0.347-0.05,0.723-0.063,1.08-0.103c-0.412,0.799-0.831,1.636-1.262,2.542c-2.171,4.485-3.493,7.169-3.954,8.047
			c-6.018,11.155-9.877,18.349-11.589,21.584c-3.979,7.541-5.97,11.804-5.97,12.771v1.598c3.469,0,5.46-0.86,5.97-2.564
			c0.367-1.204,0.992-3.664,1.872-7.361c0.752-3.104,7.48-14.888,7.48-14.888h0.006c0.776-1.938,1.794-3.917,3.063-5.935
			c3.333-5.228,5.665-8.835,7.011-10.829c1.265-1.938,2.225-3.658,2.92-5.196c0.016,0.002,0.027,0,0.045,0
			c6.197,0.255,10.485,0.454,12.886,0.615c4.303,0.227,7.508-0.061,9.614-0.851c0.531-0.747,0.842-1.271,0.925-1.589
			C296.576,240.842,296.58,240.299,296.566,239.347"/>
	</g>
	<g id="cowork">
		<g>
			<g>
				<path fill="#FFFFFF" d="M156.25,203.671c0,4.677-3.384,8.343-10.151,10.974c-5.127,1.989-10.525,2.986-16.2,2.986
					c-11.894,0-17.838-2.936-17.838-8.81c0-4.179,3.881-8.233,11.643-12.169c6.917-3.48,12.738-5.222,17.47-5.222
					c4.179,0,7.636,0.971,10.375,2.909C154.684,196.529,156.25,199.641,156.25,203.671 M152.145,203.224
					c0-2.44-1.244-4.281-3.731-5.527c-1.992-0.994-4.332-1.492-7.019-1.492c-4.479,0-9.133,1.246-13.958,3.732
					c-5.078,2.539-8.709,5.647-10.897,9.332c3.383,3.434,7.438,5.154,12.165,5.154c4.53,0,9.183-0.825,13.96-2.465
					C148.983,209.767,152.145,206.86,152.145,203.224"/>
				<path fill="#FFFFFF" d="M219.552,201.732c0,5.224-3.108,9.507-9.33,12.837c-5.176,2.736-10.676,4.107-16.498,4.107
					c-4.43,0-7.911-1.515-10.448-4.554l-1.568-2.016c-0.699,0.1-3.958,1.417-9.781,3.957c-2.386,1.042-4.476,1.567-6.272,1.567
					c-5.176,0-7.759-1.567-7.759-4.706c0-1.391,2.302-5.111,6.901-11.159c4.604-6.046,7.43-9.069,8.475-9.069
					c0.746,0,1.395,0.326,1.939,0.971c0.548,0.65,0.819,1.343,0.819,2.091c0,1.793-2.61,5.399-7.835,10.824
					c-2.836,2.937-4.603,4.976-5.3,6.12c1.79,1.047,3.084,1.568,3.879,1.568c4.779,0,8.859-1.492,12.245-4.477
					c2.389-2.09,5.002-5.676,7.837-10.751c0.2,0.249,2.438,1.714,2.536,1.866c0.253,0.349,0.378,0.847,0.378,1.491
					c0,0.948-0.35,2.329-1.047,4.146c-0.7,1.816-1.046,3.173-1.046,4.067c0,1.493,0.898,2.662,2.69,3.509
					c1.394,0.648,2.933,0.967,4.625,0.967c5.825,0,10.701-1.418,14.634-4.253c4.478-3.18,6.717-7.562,6.717-13.139
					c0-1.443-0.197-2.536-0.595-3.282c-0.303-0.548-1.046-1.369-2.241-2.463c-0.895,0-1.843-0.497-2.84-1.494l1.044-1.195
					c2.541,0,4.556,1.492,6.052,4.478C218.956,196.131,219.552,198.796,219.552,201.732"/>
				<path fill="#FFFFFF" d="M265.907,203.671c0,4.677-3.382,8.343-10.151,10.974c-5.125,1.989-10.525,2.986-16.2,2.986
					c-11.895,0-17.84-2.936-17.84-8.81c0-4.179,3.886-8.233,11.645-12.169c6.92-3.48,12.741-5.222,17.47-5.222
					c4.179,0,7.638,0.971,10.377,2.909C264.34,196.529,265.907,199.641,265.907,203.671 M261.799,203.224
					c0-2.44-1.24-4.281-3.729-5.527c-1.988-0.994-4.33-1.492-7.016-1.492c-4.479,0-9.136,1.246-13.959,3.732
					c-5.079,2.539-8.712,5.647-10.901,9.332c3.388,3.434,7.442,5.154,12.167,5.154c4.529,0,9.182-0.825,13.963-2.465
					C258.639,209.767,261.799,206.86,261.799,203.224"/>
				<path fill="#FFFFFF" d="M298.527,200.539l-11.719-3.811c-2.892,0-5.427,1.966-7.614,5.901c-0.799,1.338-2.128,4.513-3.994,9.512
					c-1.871,5.004-4.866,7.503-8.994,7.503c0.248-2.041,1.541-4.852,3.881-8.433c2.535-3.883,4.055-6.744,4.554-8.582
					c0.399-1.546,0.673-4.083,0.819-7.622c0.049-1.487,0.398-3.031,1.045-4.623c0.896-2.24,1.915-3.411,3.062-3.511l1.418,0.077
					l0.745,5.074c0.351,1.293,1.521,1.943,3.51,1.943h2.537c0.447-0.052,0.797-0.077,1.045-0.077
					C294.542,193.793,297.782,196.007,298.527,200.539"/>
				<path fill="#FFFFFF" d="M342.718,183.815c0,2.736-1.82,5.273-5.45,7.615c-2.091,1.341-5.576,2.899-10.451,4.666
					c-4.878,1.763-8.259,3.27-10.151,4.512l-0.821,1.722c0.3,2.039,1.788,6.22,4.48,12.541c2.584,5.97,3.879,9.351,3.879,10.148
					c0,2.041-1.321,3.582-3.958,4.629c-0.548-2.538-2.213-6.718-4.999-12.542c-3.137-6.619-5.449-10.226-6.945-10.821
					c-0.943,3.983-1.615,6.619-2.013,7.912c-0.548,1.84-2.688,2.762-6.419,2.762v-1.718c0-1.044,2.137-5.621,6.419-13.733
					c1.839-3.487,5.997-11.223,12.467-23.216c0.498-0.945,1.915-3.834,4.253-8.66c1.691-3.533,3.212-6.319,4.557-8.36
					c0.197-0.297,0.724-0.646,1.566-1.045c0.896,0.5,1.392,0.797,1.492,0.895c0.249,0.25,0.572,0.822,0.975,1.718
					c-0.402,2.388-1.866,5.524-4.41,9.405c-1.442,2.137-3.957,6.024-7.539,11.645c-2.686,4.28-4.353,8.387-5,12.316
					c2.54-0.644,5.428-1.712,8.659-3.207c2.738-1.346,5.498-2.687,8.29-4.034c3.479-2.588,6.988-5.173,10.522-7.76
					C342.316,182.098,342.517,182.97,342.718,183.815"/>
			</g>
		</g>
		<path fill="#FFFFFF" d="M120.998,217.167l-13.879,3.63c-5.31,1.157-10.042,1.732-14.2,1.732c-13.979,0-20.974-5.046-20.974-15.139
			c0-4.838,2.26-10.488,6.785-16.957c3.783-5.414,8.014-9.933,12.695-13.565c5.679-4.416,10.725-6.619,15.14-6.619
			c6.414,0,9.623,3.021,9.623,9.066c0,1.001-0.369,4.257-1.105,9.777c-1.683-0.262-2.683-0.469-2.995-0.63
			c-0.583-0.314-1.21-1.076-1.893-2.287c0.735-2.942,1.104-5.202,1.104-6.783c0-2.942-1.631-4.416-4.889-4.416
			c-4.471,0-9.281,2.182-14.433,6.546c-4.154,3.578-7.677,7.701-10.569,12.38c-3.26,5.258-4.885,9.934-4.885,14.04
			c0,4.048,1.943,7.123,5.832,9.223c3.102,1.685,6.863,2.525,11.279,2.525c2.467,0,5.413-0.185,8.833-0.554
			c1.205-0.102,16.742-3.703,17.738-3.861C120.522,215.75,120.787,216.382,120.998,217.167"/>
	</g>
</g>
</svg>
