<?xml version="1.0" encoding="utf-8"?>
<!-- Generator: Adobe Illustrator 15.0.0, SVG Export Plug-In . SVG Version: 6.00 Build 0)  -->
<!DOCTYPE svg PUBLIC "-//W3C//DTD SVG 1.1//EN" "http://www.w3.org/Graphics/SVG/1.1/DTD/svg11.dtd">
<svg version="1.1" id="Layer_1" xmlns="http://www.w3.org/2000/svg" xmlns:xlink="http://www.w3.org/1999/xlink" x="0px" y="0px"
	 width="400px" height="400px" viewBox="0 0 400 400" enable-background="new 0 0 400 400" xml:space="preserve">
<g>
	<circle fill="#F07E1A" cx="201.387" cy="194.009" r="181.729"/>
	<g>
		<defs>
			<path id="SVGID_1_" d="M247.795,12.06c-0.016-0.002-0.028-0.005-0.043-0.007c-2.643,0.176-5.295,0.404-7.965,0.687
				c0.028,0.003,0.055,0.006,0.083,0.009c-3.863,0.407-7.745,0.909-11.652,1.538c-0.028,0.005-0.05,0.009-0.077,0.014
				c-0.118,0.019-0.235,0.038-0.352,0.056c29.452,5.767,58.017,18.847,82.757,39.844c47.833,40.603,70.254,92.735,72.347,142.989
				c0.217-0.625,0.432-1.251,0.643-1.876c-0.002-0.009-0.004-0.019-0.004-0.026c2.271-6.736,4.174-13.467,5.693-20.163
				c0.002,0.014,0.004,0.028,0.006,0.042c0.361-1.59,0.701-3.184,1.02-4.771c-0.003-0.014-0.004-0.027-0.007-0.042
				c8.474-42.318,1.515-82.833-23.135-113.18c-0.006-0.006-0.013-0.016-0.019-0.022c-0.039-0.048-0.078-0.096-0.118-0.145
				c-0.014-0.018-0.03-0.037-0.045-0.056c-0.034-0.042-0.068-0.083-0.103-0.125c-0.025-0.032-0.048-0.059-0.073-0.089
				c-0.027-0.034-0.055-0.066-0.082-0.1c-0.054-0.065-0.104-0.127-0.158-0.192c-2.073-2.51-4.24-4.914-6.493-7.208
				c-23.385-23.83-56.208-36.193-92.921-37.49C260.769,11.521,254.326,11.627,247.795,12.06"/>
		</defs>
		<use xlink:href="#SVGID_1_"  overflow="visible" fill="#3E5DA8"/>
		<clipPath id="SVGID_2_">
			<use xlink:href="#SVGID_1_"  overflow="visible"/>
		</clipPath>
	</g>
	<g>
		<defs>
			<path id="SVGID_3_" d="M19.546,205.757L19.546,205.757c-1.353,4.39-2.543,8.776-3.574,13.146c0-0.008,0-0.017-0.001-0.023
				c-0.502,2.126-0.966,4.254-1.391,6.373c0.001,0.017,0.001,0.033,0.002,0.05c-6.879,34.402-3.491,67.623,11.414,95.14
				c0.008,0.015,0.012,0.025,0.021,0.038c0.027,0.05,0.054,0.1,0.082,0.149c0.015,0.028,0.03,0.057,0.046,0.086
				c0.021,0.037,0.041,0.075,0.062,0.114c0.023,0.042,0.046,0.083,0.069,0.125c0.015,0.027,0.029,0.054,0.044,0.082
				c3.202,5.827,6.921,11.394,11.174,16.66l0.003,0.004c0.054,0.066,0.104,0.128,0.158,0.194c0.004,0.006,0.004,0.007,0.009,0.012
				c0.055,0.068,0.108,0.134,0.165,0.202c27.378,33.584,71.285,48.343,120.008,45.049c0.029,0.006,0.056,0.01,0.083,0.014
				c2.528-0.172,5.07-0.393,7.622-0.662c-0.003,0-0.007,0-0.011-0.003c0.898-0.094,1.804-0.212,2.707-0.319
				c0.026,0.003,0.052,0.007,0.077,0.012c11.171-1.328,22.537-3.578,33.979-6.741c-8.807-1.506-18.826-1.069-28.239-3.317
				C114.788,357.987,39.055,323.39,19.546,205.757L19.546,205.757"/>
		</defs>
		<use xlink:href="#SVGID_3_"  overflow="visible" fill="#2C5FAA"/>
		<clipPath id="SVGID_4_">
			<use xlink:href="#SVGID_3_"  overflow="visible"/>
		</clipPath>
	</g>
</g>
</svg>
