<?xml version="1.0" encoding="utf-8"?>
<!-- Generator: Adobe Illustrator 15.0.0, SVG Export Plug-In . SVG Version: 6.00 Build 0)  -->
<!DOCTYPE svg PUBLIC "-//W3C//DTD SVG 1.1//EN" "http://www.w3.org/Graphics/SVG/1.1/DTD/svg11.dtd">
<svg version="1.1" id="Layer_1" xmlns="http://www.w3.org/2000/svg" xmlns:xlink="http://www.w3.org/1999/xlink" x="0px" y="0px"
	 width="147.962px" height="226.772px" viewBox="0 0 147.962 226.772" enable-background="new 0 0 147.962 226.772"
	 xml:space="preserve">
<g>
	<g>
		<defs>
			<path id="SVGID_1_" d="M0,73.976c0,27.789,15.335,51.99,37.996,64.636l35.973,88.159l35.971-88.144
				c22.68-12.647,38.023-36.855,38.023-64.651C147.963,33.112,114.83,0,73.977,0C33.12,0,0,33.112,0,73.976"/>
		</defs>
		<clipPath id="SVGID_2_">
			<use xlink:href="#SVGID_1_"  overflow="visible"/>
		</clipPath>
		
			<linearGradient id="SVGID_3_" gradientUnits="userSpaceOnUse" x1="-346.9609" y1="411.0259" x2="-345.9658" y2="411.0259" gradientTransform="matrix(-1.000000e-05 -227.8994 -227.8994 1.000000e-05 93746.5938 -78845.4844)">
			<stop  offset="0" style="stop-color:#114174"/>
			<stop  offset="1" style="stop-color:#1789CA"/>
		</linearGradient>
		<rect x="0" y="0" clip-path="url(#SVGID_2_)" fill="url(#SVGID_3_)" width="147.964" height="226.771"/>
	</g>
	<g>
		<defs>
			<path id="SVGID_4_" d="M11.924,33.72C4.393,45.312,0,59.126,0,73.976c0,27.789,15.335,51.99,37.996,64.636l6.897,16.905
				c6.6,1.929,13.565,2.979,20.785,2.979c15.293,0,29.492-4.637,41.286-12.59l2.973-7.278c6.674-3.722,12.682-8.458,17.872-13.975
				c7.491-11.563,11.862-25.335,11.862-40.136c0-40.862-33.134-73.976-73.993-73.976C44.498,10.541,25.408,19.452,11.924,33.72"/>
		</defs>
		<clipPath id="SVGID_5_">
			<use xlink:href="#SVGID_4_"  overflow="visible"/>
		</clipPath>
		
			<linearGradient id="SVGID_6_" gradientUnits="userSpaceOnUse" x1="-346.9619" y1="411.0259" x2="-345.9668" y2="411.0259" gradientTransform="matrix(-6.500000e-06 -148.6904 -148.6904 6.500000e-06 61185.3945 -51431.3594)">
			<stop  offset="0" style="stop-color:#114174"/>
			<stop  offset="1" style="stop-color:#1789CA"/>
		</linearGradient>
		<rect x="0" y="10.541" clip-path="url(#SVGID_5_)" fill="url(#SVGID_6_)" width="139.671" height="147.955"/>
	</g>
	<g>
		<defs>
			<path id="SVGID_7_" d="M0,73.983c0,40.851,33.12,73.979,73.977,73.979c40.857,0,73.987-33.129,73.987-73.979
				c0-40.863-33.13-73.977-73.987-73.977C33.12,0.006,0,33.12,0,73.983"/>
		</defs>
		<clipPath id="SVGID_8_">
			<use xlink:href="#SVGID_7_"  overflow="visible"/>
		</clipPath>
		
			<linearGradient id="SVGID_9_" gradientUnits="userSpaceOnUse" x1="-346.9619" y1="411.0239" x2="-345.9668" y2="411.0239" gradientTransform="matrix(148.6997 0 0 -148.6997 51593.0117 61193.207)">
			<stop  offset="0" style="stop-color:#114174"/>
			<stop  offset="1" style="stop-color:#1789CA"/>
		</linearGradient>
		<rect y="0.006" clip-path="url(#SVGID_8_)" fill="url(#SVGID_9_)" width="147.963" height="147.956"/>
	</g>
	<g>
		<g opacity="0.5">
			<g>
				<defs>
					<rect id="SVGID_10_" x="4.987" y="2.945" width="137.991" height="56.363"/>
				</defs>
				<clipPath id="SVGID_11_">
					<use xlink:href="#SVGID_10_"  overflow="visible"/>
				</clipPath>
				<g clip-path="url(#SVGID_11_)">
					<defs>
						<path id="SVGID_12_" d="M73.983,2.945C40.541,3,12.569,26.069,4.987,57.167c0.811,0.729,1.658,1.434,2.512,2.142
							C14.242,28.761,41.395,5.937,73.977,5.883c32.568,0.054,59.736,22.878,66.477,53.417c0.861-0.7,1.714-1.413,2.524-2.139
							C135.389,26.062,107.412,3,73.983,2.945"/>
					</defs>
					<clipPath id="SVGID_13_">
						<use xlink:href="#SVGID_12_"  overflow="visible"/>
					</clipPath>
					
						<linearGradient id="SVGID_14_" gradientUnits="userSpaceOnUse" x1="-346.9683" y1="411.0269" x2="-345.9731" y2="411.0269" gradientTransform="matrix(-2.500000e-06 -56.6445 -56.6445 2.500000e-06 23356.3438 -19594.5547)">
						<stop  offset="0" style="stop-color:#6ABEE2"/>
						<stop  offset="1" style="stop-color:#DBEEF1"/>
					</linearGradient>
					<rect x="4.987" y="2.945" clip-path="url(#SVGID_13_)" fill="url(#SVGID_14_)" width="137.991" height="56.363"/>
				</g>
			</g>
		</g>
		<g opacity="0.4">
			<g>
				<defs>
					<rect id="SVGID_15_" x="2.504" y="0" width="142.958" height="80.458"/>
				</defs>
				<clipPath id="SVGID_16_">
					<use xlink:href="#SVGID_15_"  overflow="visible"/>
				</clipPath>
				<g clip-path="url(#SVGID_16_)">
					<defs>
						<path id="SVGID_17_" d="M73.983,0C39.745,0,10.934,23.262,2.504,54.844c15.5,15.452,41.723,25.615,71.479,25.615
							c29.741,0,55.972-10.163,71.479-25.621C137.028,23.262,108.222,0,73.983,0"/>
					</defs>
					<clipPath id="SVGID_18_">
						<use xlink:href="#SVGID_17_"  overflow="visible"/>
					</clipPath>
					
						<linearGradient id="SVGID_19_" gradientUnits="userSpaceOnUse" x1="-346.96" y1="411.0278" x2="-345.9644" y2="411.0278" gradientTransform="matrix(264.1095 1.150000e-05 -1.150000e-05 264.1095 91518.1328 -108516.0703)">
						<stop  offset="0" style="stop-color:#114174"/>
						<stop  offset="1" style="stop-color:#1789CA"/>
					</linearGradient>
					<rect x="2.504" y="0" clip-path="url(#SVGID_18_)" fill="url(#SVGID_19_)" width="142.958" height="80.458"/>
				</g>
			</g>
		</g>
		<path fill="#FFFFFF" d="M90.67,44.366l-0.601-0.591c-4.438-4.361-9.852-6.573-16.089-6.573c-6.296,0-11.747,2.247-16.202,6.679
			c-4.454,4.435-6.712,9.879-6.712,16.18v27.873c0,2.865,0.496,5.616,1.472,8.179l0.668,1.755L90.67,44.366z M53.056,60.061
			c0-5.752,2.061-10.722,6.125-14.769c4.069-4.048,9.048-6.101,14.799-6.101c5.415,0,10.147,1.823,14.083,5.425L53.796,93.558
			c-0.492-1.798-0.74-3.681-0.74-5.624V60.061z"/>
		<path fill="#FFFFFF" d="M105.714,57.991c-0.01-0.137-0.02-0.272-0.029-0.41c-0.398-5.65-2.169-10.776-5.296-15.318l-0.069-0.111
			l-0.007,0.006c-1.107-1.595-2.378-3.124-3.822-4.571c-6.169-6.187-13.742-9.324-22.509-9.324c-8.729,0-16.29,3.137-22.473,9.322
			c-6.187,6.185-9.323,13.747-9.323,22.476v27.873c0,8.727,3.136,16.288,9.323,22.476c4.742,4.742,10.294,7.684,16.558,8.803
			c0.036,0.008,0.073,0.012,0.109,0.02c0.429,0.074,0.858,0.144,1.293,0.202c0.127,0.016,0.255,0.029,0.383,0.045
			c0.356,0.043,0.712,0.086,1.072,0.116c0.238,0.021,0.479,0.035,0.719,0.051c0.261,0.018,0.521,0.039,0.785,0.051
			c0.514,0.023,1.032,0.036,1.553,0.036c8.765,0,16.339-3.138,22.511-9.324c6.163-6.19,9.288-13.751,9.288-22.476V60.06
			C105.781,59.363,105.753,58.675,105.714,57.991 M94.17,54.438c0.144,0.528,0.265,1.063,0.365,1.604
			c0.031,0.161,0.055,0.324,0.082,0.487c0.067,0.419,0.126,0.846,0.169,1.274c0.018,0.171,0.037,0.34,0.051,0.51
			c0.043,0.578,0.075,1.159,0.075,1.748v27.873c0,5.753-2.06,10.711-6.127,14.736c-4.072,4.034-9.053,6.081-14.804,6.081
			c-0.694,0-1.376-0.032-2.048-0.093c-0.231-0.019-0.454-0.062-0.682-0.09c-0.436-0.051-0.872-0.1-1.297-0.18
			c-0.268-0.049-0.528-0.121-0.793-0.179c-0.374-0.083-0.749-0.164-1.116-0.269c-0.278-0.08-0.549-0.181-0.822-0.272
			c-0.34-0.112-0.681-0.222-1.012-0.351c-0.28-0.111-0.551-0.242-0.826-0.364c-0.313-0.141-0.629-0.28-0.937-0.437
			c-0.274-0.142-0.543-0.301-0.812-0.457c-0.294-0.167-0.588-0.336-0.873-0.52c-0.27-0.174-0.532-0.361-0.794-0.547
			c-0.276-0.197-0.55-0.393-0.817-0.605c-0.26-0.204-0.514-0.42-0.766-0.637c-0.153-0.132-0.306-0.272-0.457-0.411L94.17,54.438z
			 M44.176,87.933V60.06c0-8.183,2.94-15.271,8.739-21.069c5.796-5.799,12.884-8.739,21.066-8.739c8.219,0,15.319,2.94,21.1,8.739
			c1.541,1.548,2.875,3.188,4.01,4.916l-5.716,8.165l0.008,0.023l-34.918,49.866l-0.015-0.014l-5.179,7.397
			c-0.119-0.116-0.24-0.224-0.356-0.34C47.116,103.202,44.176,96.112,44.176,87.933"/>
	</g>
</g>
</svg>
