<?xml version="1.0" encoding="utf-8"?>
<!-- Generator: Adobe Illustrator 16.0.0, SVG Export Plug-In . SVG Version: 6.00 Build 0)  -->
<!DOCTYPE svg PUBLIC "-//W3C//DTD SVG 1.1//EN" "http://www.w3.org/Graphics/SVG/1.1/DTD/svg11.dtd">
<svg version="1.1" id="Layer_1" xmlns="http://www.w3.org/2000/svg" xmlns:xlink="http://www.w3.org/1999/xlink" x="0px" y="0px"
	 width="8px" height="8px" viewBox="0 0 8 8" enable-background="new 0 0 8 8" xml:space="preserve">
<path fill="#FFFFFF" d="M0.031,0.031v1.984h7.937V0.031H0.031z M0.031,3.008v4.868c0,0.059,0.039,0.093,0.106,0.093h7.725
	c0.067,0,0.106-0.034,0.106-0.093V3.008H0.031L0.031,3.008z M1.165,4h1.134v0.992H1.165V4z M3.433,4h1.133v0.992H3.433V4z M5.7,4
	h1.134v0.992H5.7V4z M1.165,5.984h1.134v0.992H1.165V5.984z M3.433,5.984h1.133v0.992H3.433V5.984z"/>
</svg>
