<?xml version="1.0" encoding="utf-8"?>
<!-- Generator: Adobe Illustrator 16.0.0, SVG Export Plug-In . SVG Version: 6.00 Build 0)  -->
<!DOCTYPE svg PUBLIC "-//W3C//DTD SVG 1.1//EN" "http://www.w3.org/Graphics/SVG/1.1/DTD/svg11.dtd">
<svg version="1.1" id="Layer_1" xmlns="http://www.w3.org/2000/svg" xmlns:xlink="http://www.w3.org/1999/xlink" x="0px" y="0px"
	 width="8px" height="8px" viewBox="0 0 8 8" enable-background="new 0 0 8 8" xml:space="preserve">
<path fill="#FFFFFF" d="M1.688,0C1.578,0,1.5,0.077,1.5,0.188v7.625C1.5,7.922,1.577,8,1.688,8h4.625C6.422,8,6.5,7.924,6.5,7.812
	V0.188C6.5,0.078,6.424,0,6.312,0H1.688z M2.5,1h3v5h-3V1z M4,6.5c0.28,0,0.5,0.221,0.5,0.5S4.281,7.5,4,7.5
	c-0.28,0-0.5-0.221-0.5-0.5S3.721,6.5,4,6.5z"/>
</svg>
