<?xml version="1.0" encoding="utf-8"?>
<!-- Generator: Adobe Illustrator 16.0.0, SVG Export Plug-In . SVG Version: 6.00 Build 0)  -->
<!DOCTYPE svg PUBLIC "-//W3C//DTD SVG 1.1//EN" "http://www.w3.org/Graphics/SVG/1.1/DTD/svg11.dtd">
<svg version="1.1" id="Layer_1" xmlns="http://www.w3.org/2000/svg" xmlns:xlink="http://www.w3.org/1999/xlink" x="0px" y="0px"
	 width="8px" height="8px" viewBox="0 0 8 8" enable-background="new 0 0 8 8" xml:space="preserve">
<path fill="#A5A5A5" d="M3,0C2.446,0,2,0.458,2,1v1H0.094C0.034,2,0,2.034,0,2.094V4.5C0,4.779,0.22,5,0.5,5h7
	C7.779,5,8,4.779,8,4.5V2.094C8,2.034,7.966,2,7.906,2H6V1c0-0.542-0.445-1-1-1H3z M3,1h2v1H3V1z M0,5.906v2
	C0,7.966,0.034,8,0.094,8h7.813c0.06,0,0.094-0.034,0.094-0.094v-2C7.841,5.956,7.682,6,7.501,6h-7C0.321,6,0.161,5.956,0,5.906
	L0,5.906z"/>
</svg>
