<?xml version="1.0" encoding="utf-8"?>
<!-- Generator: Adobe Illustrator 16.0.0, SVG Export Plug-In . SVG Version: 6.00 Build 0)  -->
<!DOCTYPE svg PUBLIC "-//W3C//DTD SVG 1.1//EN" "http://www.w3.org/Graphics/SVG/1.1/DTD/svg11.dtd">
<svg version="1.1" id="Layer_1" xmlns="http://www.w3.org/2000/svg" xmlns:xlink="http://www.w3.org/1999/xlink" x="0px" y="0px"
	 width="8px" height="8px" viewBox="0 0 8 8" enable-background="new 0 0 8 8" xml:space="preserve">
<g>
	<g>
		<path fill="#A5A5A5" d="M1.38,0.745C1.08,1.009,0.275,2.38,2.196,5.193C4.219,8.16,5.907,7.898,6.23,7.661l-1.359-1.94
			C4.602,5.909,4.339,5.652,3.85,5.087C3.527,4.714,3.167,4.223,2.872,3.691C2.666,3.318,2.493,2.933,2.777,2.734L1.38,0.745z"/>
	</g>
	<g>
		<path fill="#A5A5A5" d="M6.932,7.177c0.127-0.088,0.145-0.254,0.064-0.366V6.809c0,0-1.062-1.514-1.062-1.516
			C5.85,5.173,5.686,5.146,5.568,5.23L5.018,5.614l1.365,1.946C6.383,7.561,6.932,7.18,6.932,7.177L6.932,7.177z"/>
	</g>
	<g>
		<path fill="#A5A5A5" d="M3.477,2.244C3.602,2.155,3.621,1.99,3.54,1.875l0.001-0.001c0,0-1.092-1.557-1.093-1.558
			C2.364,0.197,2.201,0.17,2.083,0.253l-0.55,0.385l1.394,1.99C2.927,2.628,3.476,2.246,3.477,2.244L3.477,2.244z"/>
	</g>
</g>
</svg>
