<?xml version="1.0" encoding="utf-8"?>
<!-- Generator: Adobe Illustrator 16.0.0, SVG Export Plug-In . SVG Version: 6.00 Build 0)  -->
<!DOCTYPE svg PUBLIC "-//W3C//DTD SVG 1.1//EN" "http://www.w3.org/Graphics/SVG/1.1/DTD/svg11.dtd">
<svg version="1.1" id="Layer_1" xmlns="http://www.w3.org/2000/svg" xmlns:xlink="http://www.w3.org/1999/xlink" x="0px" y="0px"
	 width="8px" height="8px" viewBox="0 0 8 8" enable-background="new 0 0 8 8" xml:space="preserve">
<g>
	<g>
		<path fill="#FFFFFF" d="M1.38,0.745c-0.3,0.264-1.105,1.635,0.816,4.449C4.219,8.16,5.907,7.898,6.231,7.661l-1.36-1.94
			C4.601,5.909,4.339,5.653,3.85,5.087C3.527,4.714,3.167,4.223,2.872,3.691C2.666,3.318,2.493,2.933,2.777,2.734L1.38,0.745z"/>
	</g>
	<g>
		<path fill="#FFFFFF" d="M6.932,7.177C7.058,7.089,7.076,6.923,6.996,6.81V6.808c0,0-1.062-1.513-1.062-1.515
			c-0.084-0.12-0.248-0.147-0.366-0.063L5.018,5.614l1.365,1.946C6.383,7.561,6.931,7.179,6.932,7.177L6.932,7.177z"/>
	</g>
	<g>
		<path fill="#FFFFFF" d="M3.477,2.244C3.602,2.155,3.621,1.99,3.54,1.875l0.001-0.001c0,0-1.092-1.557-1.093-1.558
			C2.364,0.197,2.201,0.17,2.083,0.253l-0.55,0.385l1.394,1.99C2.927,2.628,3.476,2.246,3.477,2.244L3.477,2.244z"/>
	</g>
</g>
</svg>
