<?xml version="1.0" encoding="utf-8"?>
<!-- Generator: Adobe Illustrator 16.0.0, SVG Export Plug-In . SVG Version: 6.00 Build 0)  -->
<!DOCTYPE svg PUBLIC "-//W3C//DTD SVG 1.1//EN" "http://www.w3.org/Graphics/SVG/1.1/DTD/svg11.dtd">
<svg version="1.1" id="Layer_1" xmlns="http://www.w3.org/2000/svg" xmlns:xlink="http://www.w3.org/1999/xlink" x="0px" y="0px"
	 width="8px" height="8px" viewBox="0 0 8 8" enable-background="new 0 0 8 8" xml:space="preserve">
<path fill="#A5A5A5" d="M4,0C1.79,0,0,1.79,0,4s1.79,4,4,4s4-1.79,4-4S6.21,0,4,0z M4,1c0.333,0,0.637,0.086,0.938,0.188
	c-0.213,0.197-0.45,0.383-0.404,0.563c0.04,0.18,0.688,0.13,0.688,0.5c0,0.27-0.426,0.346-0.125,0.656
	c0.35,0.35-0.637,0.978-0.657,1.438c-0.03,0.83,0.84,0.969,1.532,0.969c0.424,0,0.502,0.193,0.469,0.438
	c-0.547,0.758-1.438,1.25-2.438,1.25c-0.378,0-0.729-0.09-1.063-0.219c0.224-0.442-0.313-1.344-0.781-1.625
	c-0.227-0.227-0.69-0.114-0.97-0.219C1.096,4.668,1.01,4.394,1,4.095c0.031-0.05,0.081-0.094,0.156-0.094
	c0.19,0,0.454,0.374,0.594,0.344c0.18-0.04-0.742-1.313-0.313-1.563c0.2-0.12,0.609,0.394,0.469-0.156
	C1.786,2.116,2.272,2.35,2.562,2.22c0.26-0.11,0.455-0.414,0.125-0.594L2.468,1.438C2.918,1.168,3.44,1,4,1L4,1z M6.312,2.094
	c0.185,0.222,0.324,0.481,0.438,0.75L6.562,3.063C6.273,3.333,6.236,2.851,6.125,2.75c-0.13-0.11-0.639,0.025-0.688-0.125
	C5.359,2.444,5.936,2.207,6.312,2.094L6.312,2.094z"/>
</svg>
