<?xml version="1.0" encoding="utf-8"?>
<!-- Generator: Adobe Illustrator 16.0.0, SVG Export Plug-In . SVG Version: 6.00 Build 0)  -->
<!DOCTYPE svg PUBLIC "-//W3C//DTD SVG 1.1//EN" "http://www.w3.org/Graphics/SVG/1.1/DTD/svg11.dtd">
<svg version="1.1" id="Layer_1" xmlns="http://www.w3.org/2000/svg" xmlns:xlink="http://www.w3.org/1999/xlink" x="0px" y="0px"
	 width="20px" height="20px" viewBox="0 0 20 20" enable-background="new 0 0 20 20" xml:space="preserve">
<g>
	<path fill="#9D9D9D" d="M6.051,4.055c0,0.43-0.383,0.778-0.854,0.778l0,0c-0.472,0-0.854-0.348-0.854-0.778V0.778
		C4.342,0.348,4.725,0,5.196,0l0,0C5.668,0,6.05,0.348,6.05,0.778L6.051,4.055L6.051,4.055z"/>
	<path fill="#9D9D9D" d="M16.027,4.055c0,0.43-0.383,0.778-0.854,0.778l0,0c-0.472,0-0.854-0.348-0.854-0.778V0.778
		c0-0.43,0.384-0.778,0.854-0.778l0,0c0.474,0,0.854,0.348,0.854,0.778V4.055z"/>
	<path fill="#9D9D9D" d="M18.635,2.178h-1.775V3.47c0,1.289-0.61,2.333-1.365,2.333h-0.641c-0.754,0-1.365-1.044-1.365-2.333V2.178
		H6.79V3.47c0,1.289-0.612,2.333-1.366,2.333h-0.64c-0.755,0-1.366-1.044-1.366-2.333V2.178H1.365C0.612,2.178,0,2.854,0,3.688
		v14.801C0,19.324,0.612,20,1.365,20h17.27C19.389,20,20,19.324,20,18.489V3.688C20,2.854,19.389,2.178,18.635,2.178z
		 M19.029,17.672c0,0.835-0.611,1.512-1.365,1.512H2.521c-0.754,0-1.366-0.677-1.366-1.512V8.948c0-0.835,0.612-1.511,1.366-1.511
		h15.144c0.754,0,1.366,0.676,1.366,1.511v8.724H19.029z"/>
	<path fill="#9D9D9D" d="M5.589,9.96c0,0.834-0.588,1.511-1.312,1.511h-1.28c-0.726,0-1.312-0.677-1.312-1.511V9.613
		c0-0.834,0.587-1.511,1.312-1.511h1.279c0.725,0,1.312,0.677,1.312,1.511L5.589,9.96L5.589,9.96z"/>
	<path fill="#9D9D9D" d="M9.885,9.96c0,0.834-0.588,1.511-1.312,1.511h-1.28c-0.725,0-1.312-0.677-1.312-1.511V9.613
		c0-0.834,0.588-1.511,1.312-1.511h1.28c0.725,0,1.312,0.677,1.312,1.511V9.96z"/>
	<path fill="#9D9D9D" d="M14.134,9.96c0,0.834-0.587,1.511-1.312,1.511h-1.279c-0.725,0-1.312-0.677-1.312-1.511V9.613
		c0-0.834,0.587-1.511,1.312-1.511h1.279c0.726,0,1.312,0.677,1.312,1.511V9.96z"/>
	<path fill="#9D9D9D" d="M18.384,9.96c0,0.834-0.588,1.511-1.312,1.511h-1.28c-0.726,0-1.312-0.677-1.312-1.511V9.613
		c0-0.834,0.588-1.511,1.312-1.511h1.28c0.725,0,1.312,0.677,1.312,1.511V9.96z"/>
	<path fill="#9D9D9D" d="M5.589,13.639c0,0.834-0.588,1.51-1.312,1.51h-1.28c-0.726,0-1.312-0.676-1.312-1.51v-0.35
		c0-0.834,0.587-1.512,1.312-1.512h1.279c0.725,0,1.312,0.678,1.312,1.512L5.589,13.639L5.589,13.639z"/>
	<path fill="#9D9D9D" d="M9.885,13.639c0,0.834-0.588,1.51-1.312,1.51h-1.28c-0.725,0-1.312-0.676-1.312-1.51v-0.35
		c0-0.834,0.588-1.512,1.312-1.512h1.28c0.725,0,1.312,0.678,1.312,1.512V13.639z"/>
	<path fill="#9D9D9D" d="M14.134,13.639c0,0.834-0.587,1.51-1.312,1.51h-1.279c-0.725,0-1.312-0.676-1.312-1.51v-0.35
		c0-0.834,0.587-1.512,1.312-1.512h1.279c0.726,0,1.312,0.678,1.312,1.512V13.639z"/>
	<path fill="#9D9D9D" d="M18.384,13.639c0,0.834-0.588,1.51-1.312,1.51h-1.28c-0.726,0-1.312-0.676-1.312-1.51v-0.35
		c0-0.834,0.588-1.512,1.312-1.512h1.28c0.725,0,1.312,0.678,1.312,1.512V13.639z"/>
	<path fill="#9D9D9D" d="M5.589,17.307c0,0.834-0.588,1.51-1.312,1.51h-1.28c-0.726,0-1.312-0.676-1.312-1.51v-0.35
		c0-0.835,0.587-1.512,1.312-1.512h1.279c0.725,0,1.312,0.677,1.312,1.512L5.589,17.307L5.589,17.307z"/>
	<path fill="#9D9D9D" d="M9.885,17.307c0,0.834-0.588,1.51-1.312,1.51h-1.28c-0.725,0-1.312-0.676-1.312-1.51v-0.35
		c0-0.835,0.588-1.512,1.312-1.512h1.28c0.725,0,1.312,0.677,1.312,1.512V17.307z"/>
</g>
</svg>
