<?xml version="1.0" encoding="utf-8"?>
<!-- Generator: Adobe Illustrator 16.0.0, SVG Export Plug-In . SVG Version: 6.00 Build 0)  -->
<!DOCTYPE svg PUBLIC "-//W3C//DTD SVG 1.1//EN" "http://www.w3.org/Graphics/SVG/1.1/DTD/svg11.dtd">
<svg version="1.1" id="Layer_1" xmlns="http://www.w3.org/2000/svg" xmlns:xlink="http://www.w3.org/1999/xlink" x="0px" y="0px"
	 width="61.439px" height="61.439px" viewBox="0 0 61.439 61.439" enable-background="new 0 0 61.439 61.439" xml:space="preserve">
<g id="eagle">
	<path fill="#3167B3" d="M6.485,4.621C22.644,17.429,38.837,30.222,55.1,42.987c-1.523,1.057-3.061,2.086-4.592,3.137
		c-10.992,0.416-22.003,0.799-33.033,1.139c-0.518-2.434-1.392-5.004-1.798-7.307c5.678,0.861,11.612,1.689,17.462,2.615
		c5.006,0.789,10.273,1.455,15.268,2.273c0.678,0.111,1.459,0.428,1.914-0.293c-12.158-4.629-24.799-9.264-37.11-13.816
		c-0.531-2.215-1.312-4.611-1.655-6.726c13.245,6.521,26.441,13.059,39.721,19.567c0.354-0.074,0.59-0.418,0.848-0.715
		C37.669,32.77,23.038,22.749,8.506,12.688C7.876,9.982,7.039,7.358,6.485,4.621z"/>
	<path fill="#3167B3" d="M3.186,11.49c0.011-0.059,0.051-0.049,0.093-0.038c15.814,10.419,32.188,20.861,47.739,31.275
		c-2.045-0.561-3.811-1.752-5.697-2.699c-13.207-6.629-26.489-13.5-39.676-20.221C4.669,17.097,4.123,14.215,3.186,11.49z"/>
	<path fill="#3167B3" d="M49.481,44.516c-0.779,0.281-1.621-0.049-2.404-0.195c-11.379-2.15-23.229-3.973-34.858-6.105
		c-0.791-0.143-2.104-0.223-2.455-0.443c-0.372-0.232-0.613-1.428-0.773-2.025c-0.591-2.248-1.119-4.115-1.659-6.354
		C21.405,34.487,35.395,39.391,49.481,44.516z"/>
	<path fill="#FF9100" d="M58.253,53.149c-0.277,0.586-0.834,0.537-1.182,0.959c-0.121-0.129,0.145-0.414,0.18-0.604
		c-6.025-2.098-12.084-4.287-18.15-6.488c3.764-0.219,7.588-0.297,11.381-0.455c1.863,1.477,3.814,2.926,5.572,4.445
		c0.283,0.1,0.09,0.393,0.145,0.584C56.969,52.073,57.432,52.684,58.253,53.149z M54.841,51.702c0.627-0.006,0.924,0.391,1.248-0.23
		c-0.348-0.135-1.562-1.158-1.652-1.387C54.3,50.462,54.905,51.339,54.841,51.702z"/>
	<path fill="#FF9100" d="M30.962,47.335c2.449-0.293,5.031-0.268,7.589-0.309c-0.469,1.059-1.656,1.469-1.941,2.383
		c-0.172,0.545,0.324,1.477,0.451,2.051c0.174,0.777,0.217,1.453,0.355,2.092c1.176,0.463,2.354,0.928,3.531,1.393
		c-0.553,0.551-1.047,1.23-1.564,1.857c-0.012-0.406,0.385-0.973,0.529-1.439c-1.111-0.412-2.049-1.111-3.102-1.299
		c-1.037-0.189-2.219,0.514-3.086,0.506c0.156-0.23,0.584-0.309,1.059-0.484c0.139-0.051,1.135-0.275,1.191-0.426
		c0.098-0.268-0.371-0.43-0.57-0.678C34.206,51.481,32.307,48.796,30.962,47.335z"/>
	<path fill="#FF9100" d="M36.819,49.645c0.68-0.803,1.344-1.652,2.037-2.422c0.379,0.148,0.754,0.297,1.133,0.445
		c-0.793,0.803-1.672,1.4-2.475,2.174c0.027,1.018,0.154,2.562,0.094,3.26C37.319,51.96,37.2,50.751,36.819,49.645z"/>
	<path fill="#FF9100" d="M41.145,55.022c0.271,0.051,0.283,0.205,0.506,0.277c-0.229,0.287-0.676,0.543-1.035,0.789
		c-0.336,0.232-0.758,0.672-0.926,0.537C40.204,56.157,40.637,55.499,41.145,55.022z"/>
	<path fill="#FF9100" d="M41.983,55.428c0.223,0.088,0.443,0.174,0.666,0.264c-0.855,0.441-1.787,0.703-2.656,1.125
		C40.444,56.366,41.376,55.934,41.983,55.428z"/>
</g>
</svg>
