<?xml version="1.0" encoding="utf-8"?>
<!-- Generator: Adobe Illustrator 15.0.0, SVG Export Plug-In . SVG Version: 6.00 Build 0)  -->
<!DOCTYPE svg PUBLIC "-//W3C//DTD SVG 1.1//EN" "http://www.w3.org/Graphics/SVG/1.1/DTD/svg11.dtd">
<svg version="1.1" id="Layer_1" xmlns="http://www.w3.org/2000/svg" xmlns:xlink="http://www.w3.org/1999/xlink" x="0px" y="0px"
	 width="191.034px" height="182.706px" viewBox="0 0 191.034 182.706" enable-background="new 0 0 191.034 182.706"
	 xml:space="preserve">
<path fill-rule="evenodd" clip-rule="evenodd" fill="#FFFFFF" d="M190.518,69.022c0.562,1.671,0.828,3.911-0.062,6.648
	c-4.221,12.987-27.703,21.517-34.916,43.722c-7.215,22.205,6.766,42.907,2.552,55.895c-0.894,2.736-2.43,4.4-3.863,5.421
	c-1.431,1.023-3.467,1.998-6.342,1.998c-13.658,0-29.024-19.696-52.375-19.696c-23.349,0-38.719,19.696-52.368,19.696
	c-2.878,0-4.922-0.96-6.35-1.994c-1.426-1.034-2.966-2.682-3.856-5.424c-4.221-12.981,9.761-33.688,2.549-55.891
	C28.271,97.192,4.788,88.662,0.569,75.675c-0.893-2.734-0.593-4.97-0.062-6.652c0.527-1.678,1.629-3.648,3.958-5.342
	c11.045-8.023,35.059-1.122,53.947-14.845C77.303,35.111,78.16,10.143,89.205,2.117C91.533,0.423,93.75,0,95.511,0
	c1.762,0,3.979,0.423,6.309,2.117c11.044,8.026,11.901,32.995,30.788,46.719c18.891,13.724,42.906,6.822,53.944,14.845
	C188.883,65.375,189.959,67.353,190.518,69.022L190.518,69.022z"/>
<path fill="#FBAA19" d="M43.009,178.082h0.067h0.066c4.644,0,10.308-3.361,16.862-7.245c9.36-5.547,21.008-12.454,35.506-12.454
	c14.5,0,26.149,6.907,35.505,12.454c6.557,3.884,12.22,7.245,16.87,7.245h0.065c1.375-0.012,2.52-0.378,3.593-1.139
	c1-0.716,1.704-1.723,2.144-3.087c1.438-4.418-0.006-10.845-1.676-18.281c-2.385-10.612-5.354-23.828-0.869-37.613
	c4.475-13.79,14.643-22.733,22.814-29.92c5.723-5.034,10.662-9.381,12.1-13.8c0.443-1.36,0.467-2.586,0.075-3.749
	c-0.421-1.263-1.147-2.239-2.294-3.071c-3.76-2.729-10.312-3.346-17.904-4.053c-10.831-1.013-24.312-2.271-36.044-10.793
	s-17.095-20.954-21.404-30.946c-3.02-6.995-5.626-13.041-9.39-15.773c-1.156-0.839-2.295-1.233-3.585-1.233
	c-1.289,0-2.428,0.394-3.588,1.233l0,0l0,0c-3.761,2.732-6.364,8.779-9.386,15.773c-4.312,9.992-9.676,22.424-21.405,30.946
	C49.403,61.1,35.919,62.357,25.09,63.37c-7.59,0.707-14.142,1.324-17.903,4.053c-1.158,0.842-1.9,1.82-2.271,2.993
	c-0.402,1.272-0.387,2.492,0.052,3.832c1.432,4.421,6.376,8.768,12.101,13.8c8.17,7.187,18.333,16.13,22.816,29.922
	c4.477,13.788,1.509,27.001-0.874,37.613c-1.668,7.438-3.114,13.859-1.676,18.28c0.443,1.36,1.132,2.346,2.176,3.105
	C40.521,177.704,41.636,178.059,43.009,178.082L43.009,178.082z"/>
</svg>
