<?xml version="1.0" encoding="utf-8"?>
<!-- Generator: Adobe Illustrator 15.0.0, SVG Export Plug-In . SVG Version: 6.00 Build 0)  -->
<!DOCTYPE svg PUBLIC "-//W3C//DTD SVG 1.1//EN" "http://www.w3.org/Graphics/SVG/1.1/DTD/svg11.dtd">
<svg version="1.1" id="Layer_1" xmlns="http://www.w3.org/2000/svg" xmlns:xlink="http://www.w3.org/1999/xlink" x="0px" y="0px"
	 width="61.427px" height="61.427px" viewBox="0 0 61.427 61.427" enable-background="new 0 0 61.427 61.427" xml:space="preserve">
<path fill-rule="evenodd" clip-rule="evenodd" fill="#175D87" d="M61.193,0.372c0,20.469,0,40.938,0,61.407
	c-20.469,0-40.938,0-61.407,0c0-20.349,0-40.698,0-61.047C-0.285,0.42-0.166,0.3,0.146,0.372
	C20.495,0.372,40.845,0.372,61.193,0.372z M34.208,8.167c-8.107,0.791-9.862,7.149-9.235,16.552
	c-1.842,0.076-3.994-0.156-5.637,0.119c0,2.559,0,5.118,0,7.676c1.839,0.08,3.997-0.159,5.637,0.12
	c0.28,6.917,0.04,14.353,0.12,21.469c2.718,0,5.437,0,8.155,0c0-7.196,0-14.393,0-21.589c2.679,0,5.357,0,8.036,0
	c0.202-2.475,0.347-5.01,0.359-7.676c-2.521-0.357-5.875,0.119-8.396-0.239c0.488-2.98-0.935-6.69,0.72-8.275
	c1.561-1.496,4.726-0.332,7.556-0.72c-0.082-2.521,0.203-4.675,0.12-7.196C39.252,8.244,36.578,7.936,34.208,8.167z"/>
</svg>
