<?xml version="1.0" encoding="utf-8"?>
<!-- Generator: Adobe Illustrator 15.0.0, SVG Export Plug-In . SVG Version: 6.00 Build 0)  -->
<!DOCTYPE svg PUBLIC "-//W3C//DTD SVG 1.1//EN" "http://www.w3.org/Graphics/SVG/1.1/DTD/svg11.dtd">
<svg version="1.1" id="Layer_1" xmlns="http://www.w3.org/2000/svg" xmlns:xlink="http://www.w3.org/1999/xlink" x="0px" y="0px"
	 width="61.427px" height="61.427px" viewBox="0 0 61.427 61.427" enable-background="new 0 0 61.427 61.427" xml:space="preserve">
<path fill-rule="evenodd" clip-rule="evenodd" fill="#DB0000" d="M61.034-0.368c0,20.473,0,40.946,0,61.419
	c-20.404,0-40.808,0-61.212,0c0-14.776,0-30.209,0-45.345c0-5.179-0.482-10.282,0-15.115c0.03-0.3-0.37-1.049,0.478-0.959
	C20.545-0.368,40.789-0.368,61.034-0.368z M29.472,16.426c2.078,0.166,2.958-0.871,4.064-1.679
	c-7.012-0.044-14.464-0.719-17.933,3.119c-4.021,4.448-1.904,13.352,6.695,12.476c-0.934,1.727,0.503,4.023,0.717,4.559
	c-5.403,0.662-11.982,1.813-11.717,7.917c0.338,7.776,14.735,7.737,19.368,2.879c2.022-2.12,2.848-6.296,1.195-8.877
	c-1.017-1.589-5.573-3.549-5.499-5.998c0.058-1.925,2.426-2.197,3.826-4.319c1.973-2.989,1.202-6.591-0.957-9.356l0.358-0.28
	L29.472,16.426z M44.058,21.225c-1.993,0-3.985,0-5.979,0c0,0.72,0,1.439,0,2.159c1.993,0,3.985,0,5.979,0c0,1.999,0,3.999,0,5.998
	c0.717,0,1.435,0,2.151,0c0.158-1.921-0.316-4.476,0.239-5.998c1.913,0,3.826,0,5.739,0c0-0.72,0-1.439,0-2.159
	c-1.915-0.158-4.462,0.317-5.979-0.24c0-1.919,0-3.838,0-5.758c-0.717,0-1.435,0-2.151,0C44.058,17.226,44.058,19.226,44.058,21.225
	z"/>
<path fill-rule="evenodd" clip-rule="evenodd" fill="#DB0000" d="M20.385,16.667c4.272-1.26,7.242,3.76,6.934,8.157
	c-0.18,2.57-2.407,4.799-5.5,4.079C17.725,27.948,15.627,18.069,20.385,16.667z"/>
<path fill-rule="evenodd" clip-rule="evenodd" fill="#DB0000" d="M22.059,36.58c0.784-0.084,1.583-0.386,2.391-0.24
	c2.834,0.511,7.428,5.818,4.065,9.117c-3.08,3.021-13.151,1.764-13.151-3.839C15.364,37.814,18.331,36.979,22.059,36.58z"/>
</svg>
