<?xml version="1.0" encoding="utf-8"?>
<!-- Generator: Adobe Illustrator 16.0.0, SVG Export Plug-In . SVG Version: 6.00 Build 0)  -->
<!DOCTYPE svg PUBLIC "-//W3C//DTD SVG 1.1//EN" "http://www.w3.org/Graphics/SVG/1.1/DTD/svg11.dtd">
<svg version="1.1" id="Layer_1" xmlns="http://www.w3.org/2000/svg" xmlns:xlink="http://www.w3.org/1999/xlink" x="0px" y="0px"
	 width="33px" height="30px" viewBox="0 0 33 30" enable-background="new 0 0 33 30" xml:space="preserve">
<path fill="#FFFFFF" d="M31.262,10.881L29.109,8.11c-0.428,0.382-0.984,0.621-1.604,0.621c-1.333,0-2.414-1.081-2.414-2.414
	c0-0.834,0.424-1.569,1.066-2.003L24.035,1.58c-0.676-0.869-1.938-1.028-2.807-0.353l-2.355,1.83
	c0.129,0.158,0.217,0.352,0.217,0.571c0,0.506-0.41,0.917-0.917,0.917c-0.303,0-0.558-0.156-0.725-0.381L0.77,17.12
	c-0.868,0.676-1.027,1.94-0.352,2.807l2.164,2.785c0.302-0.136,0.635-0.216,0.988-0.216c1.333,0,2.414,1.08,2.414,2.414
	c0,0.566-0.204,1.083-0.532,1.495l2.193,2.823c0.675,0.869,1.938,1.028,2.806,0.354l16.912-13.141
	c-0.246-0.164-0.418-0.432-0.418-0.748c0-0.507,0.41-0.917,0.918-0.917c0.398,0,0.729,0.258,0.854,0.613l2.189-1.701
	C31.777,13.013,31.938,11.75,31.262,10.881z M20.124,7.046c-0.507,0-0.917-0.411-0.917-0.917s0.41-0.917,0.917-0.917
	s0.917,0.411,0.917,0.917S20.631,7.046,20.124,7.046z M21.958,9.424c-0.507,0-0.917-0.41-0.917-0.917
	c0-0.506,0.41-0.917,0.917-0.917S22.875,8,22.875,8.507C22.875,9.014,22.465,9.424,21.958,9.424z M23.79,11.754
	c-0.507,0-0.917-0.411-0.917-0.917s0.41-0.917,0.917-0.917s0.917,0.411,0.917,0.917S24.297,11.754,23.79,11.754z M25.794,14.147
	c-0.507,0-0.917-0.411-0.917-0.917s0.41-0.917,0.917-0.917s0.917,0.411,0.917,0.917S26.301,14.147,25.794,14.147z"/>
<polygon display="none" fill="#FF9100" points="27.728,20.716 21.857,20.716 21.857,14.845 18.951,14.845 18.951,20.716 
	13.081,20.716 13.081,23.619 18.951,23.619 18.951,29.49 21.857,29.49 21.857,23.619 27.728,23.619 "/>
<polygon display="none" fill="#FFFFFF" points="18.374,23.619 18.951,23.619 18.951,29.49 21.857,29.49 21.857,23.619 
	27.728,23.619 27.728,20.716 22.11,20.716 "/>
</svg>
