<?xml version="1.0" encoding="utf-8"?>
<!-- Generator: Adobe Illustrator 15.0.0, SVG Export Plug-In . SVG Version: 6.00 Build 0)  -->
<!DOCTYPE svg PUBLIC "-//W3C//DTD SVG 1.1//EN" "http://www.w3.org/Graphics/SVG/1.1/DTD/svg11.dtd">
<svg version="1.1" id="disk" xmlns="http://www.w3.org/2000/svg" xmlns:xlink="http://www.w3.org/1999/xlink" x="0px" y="0px"
	 width="60px" height="28px" viewBox="-0.237 0.173 60 28" enable-background="new -0.237 0.173 60 28" xml:space="preserve">
<path fill="#FF9700" d="M-0.237,0.173v28h60v-28H-0.237z M46.366,27.114h-33.2c-6.434,0-11.646-3.45-11.646-7.706
	c0-3.423,3.375-6.318,8.04-7.324c-0.081-0.324-0.132-0.656-0.132-0.993c0-3.446,4.22-6.237,9.428-6.237
	c1.385,0,2.696,0.201,3.881,0.555c2.887-2.531,7.455-4.176,12.621-4.176c8.731,0,15.812,4.686,15.812,10.463
	c0,0.23-0.031,0.457-0.052,0.682c4.06,1.205,6.892,3.896,6.892,7.029C58.01,23.662,52.796,27.114,46.366,27.114z"/>
</svg>
