<?xml version="1.0" encoding="utf-8"?>
<!-- Generator: Adobe Illustrator 16.0.0, SVG Export Plug-In . SVG Version: 6.00 Build 0)  -->
<!DOCTYPE svg PUBLIC "-//W3C//DTD SVG 1.1//EN" "http://www.w3.org/Graphics/SVG/1.1/DTD/svg11.dtd">
<svg version="1.1" id="Layer_1" xmlns="http://www.w3.org/2000/svg" xmlns:xlink="http://www.w3.org/1999/xlink" x="0px" y="0px"
	 width="61.439px" height="61.439px" viewBox="0 0 61.439 61.439" enable-background="new 0 0 61.439 61.439" xml:space="preserve">
<g>
	<path fill="#FFFFFF" d="M46.497,6.839V2.219h-5.928v4.619H20.303V2.219h-5.928v4.619H4.529v52.381h52.382V6.839H46.497z
		 M53.177,55.004H8.263V11.219h44.913V55.004z"/>
	<path fill="#FFFFFF" d="M10.697,26.954v12.151h12.151V26.954H10.697z M21.695,37.953H11.85v-9.847h9.845V37.953z"/>
	<path fill="#FFFFFF" d="M10.697,40.327v12.15h12.151v-12.15H10.697z M21.695,51.325H11.85v-9.846h9.845V51.325z"/>
	<path fill="#FFFFFF" d="M10.697,13.582v12.15h12.151v-12.15H10.697z M21.695,24.58H11.85v-9.846h9.845V24.58z"/>
	<path fill="#FF9100" d="M24.643,26.954v12.151h12.15V26.954H24.643z"/>
	<path fill="#FFFFFF" d="M24.643,40.327v12.15h12.15v-12.15H24.643z M35.641,51.325h-9.845v-9.846h9.845V51.325z"/>
	<path fill="#FFFFFF" d="M24.643,13.582v12.15h12.15v-12.15H24.643z M35.641,24.58h-9.845v-9.846h9.845V24.58z"/>
	<path fill="#FFFFFF" d="M38.591,26.954v12.151h12.151V26.954H38.591z M49.59,37.953h-9.845v-9.847h9.845V37.953z"/>
	<path fill="#FFFFFF" d="M38.591,40.327v12.15h12.151v-12.15H38.591z M49.59,51.325h-9.845v-9.846h9.845V51.325z"/>
	<path fill="#FFFFFF" d="M38.591,13.582v12.15h12.151v-12.15H38.591z M49.588,24.58h-9.845v-9.846h9.845V24.58z"/>
</g>
</svg>
