<?xml version="1.0" encoding="utf-8"?>
<!-- Generator: Adobe Illustrator 15.0.0, SVG Export Plug-In . SVG Version: 6.00 Build 0)  -->
<!DOCTYPE svg PUBLIC "-//W3C//DTD SVG 1.1//EN" "http://www.w3.org/Graphics/SVG/1.1/DTD/svg11.dtd">
<svg version="1.1" id="Layer_1" xmlns="http://www.w3.org/2000/svg" xmlns:xlink="http://www.w3.org/1999/xlink" x="0px" y="0px"
	 width="61.44px" height="61.44px" viewBox="0 0 61.44 61.44" enable-background="new 0 0 61.44 61.44" xml:space="preserve">
<rect id="bg" fill="#354E72" width="61.44" height="61.44"/>
<g id="chart">
	<g id="retangulo_externo_chart">
		<path fill="#FFFFFF" d="M57.022,50.045c0,0.55-0.45,1-1,1H5.144c-0.55,0-1-0.45-1-1v-39.6c0-0.55,0.45-1,1-1h50.878
			c0.55,0,1,0.45,1,1V50.045z"/>
	</g>
	<rect id="retangulo_interno_chart" x="4.839" y="10.165" fill="#354E72" width="51.394" height="40.09"/>
</g>
<g>
	<g id="button_1">
		<g id="retangulo_externo_chart_1_">
			<path fill="#FFFFFF" d="M22.269,46.62c0,0.55-0.45,1-1,1h-4.387c-0.55,0-1-0.45-1-1v-4.107c0-0.55,0.45-1,1-1h4.387
				c0.55,0,1,0.45,1,1V46.62z"/>
		</g>
		<rect id="retangulo_interno_chart_1_" x="16.602" y="42.231" fill="#354E72" width="4.947" height="4.67"/>
	</g>
	<g id="button_2">
		<g id="retangulo_externo_chart_2_">
			<path fill="#FFFFFF" d="M29.843,46.62c0,0.55-0.45,1-1,1h-4.387c-0.55,0-1-0.45-1-1v-4.107c0-0.55,0.45-1,1-1h4.387
				c0.55,0,1,0.45,1,1V46.62z"/>
		</g>
		<rect id="retangulo_interno_chart_2_" x="24.176" y="42.231" fill="#354E72" width="4.947" height="4.67"/>
	</g>
</g>
<g>
	<g id="button_1_1_">
		<g id="retangulo_externo_chart_6_">
			<path fill="#FFFFFF" d="M37.269,46.62c0,0.55-0.45,1-1,1h-4.387c-0.55,0-1-0.45-1-1v-4.107c0-0.55,0.45-1,1-1h4.387
				c0.55,0,1,0.45,1,1V46.62z"/>
		</g>
		<rect id="retangulo_interno_chart_4_" x="31.602" y="42.231" fill="#354E72" width="4.947" height="4.67"/>
	</g>
	<g id="button_2_1_">
		<g id="retangulo_externo_chart_5_">
			<path fill="#FFFFFF" d="M44.843,46.62c0,0.55-0.45,1-1,1h-4.387c-0.55,0-1-0.45-1-1v-4.107c0-0.55,0.45-1,1-1h4.387
				c0.55,0,1,0.45,1,1V46.62z"/>
		</g>
		<rect id="retangulo_interno_chart_3_" x="39.176" y="42.231" fill="#354E72" width="4.947" height="4.67"/>
	</g>
</g>
<g>
	<g id="button_1_2_">
		<g id="retangulo_externo_chart_4_">
			<path fill="#FFFFFF" d="M43.672,34.055c0.55,0,1,0.45,1,1v4.387c0,0.55-0.45,1-1,1h-4.107c-0.55,0-1-0.45-1-1v-4.387
				c0-0.55,0.45-1,1-1H43.672z"/>
		</g>
		<rect id="retangulo_interno_chart_6_" x="39.283" y="34.774" fill="#354E72" width="4.67" height="4.947"/>
	</g>
</g>
<g>
	<g id="button_3_2_">
		<g id="retangulo_externo_chart_7_">
			<path fill="#FFFFFF" d="M51.344,41.373c0.55,0,1,0.45,1,1v4.387c0,0.55-0.45,1-1,1h-4.107c-0.55,0-1-0.45-1-1v-4.387
				c0-0.55,0.45-1,1-1H51.344z"/>
		</g>
	</g>
</g>
<g>
	<g id="button_3_1_">
		<g id="retangulo_externo_chart_8_">
			<path fill="#FFFFFF" d="M51.344,34.055c0.55,0,1,0.45,1,1v4.387c0,0.55-0.45,1-1,1h-4.107c-0.55,0-1-0.45-1-1v-4.387
				c0-0.55,0.45-1,1-1H51.344z"/>
		</g>
	</g>
</g>
<g>
	<g id="button_1_4_">
		<g id="retangulo_externo_chart_12_">
			<path fill="#FFFFFF" d="M14.975,39.441c0,0.55-0.45,1-1,1H9.588c-0.55,0-1-0.45-1-1v-4.107c0-0.55,0.45-1,1-1h4.387
				c0.55,0,1,0.45,1,1V39.441z"/>
		</g>
		<rect id="retangulo_interno_chart_10_" x="9.308" y="35.053" fill="#354E72" width="4.947" height="4.67"/>
	</g>
	<g id="button_2_4_">
		<g id="retangulo_externo_chart_11_">
			<path fill="#FFFFFF" d="M22.549,39.441c0,0.55-0.45,1-1,1h-4.387c-0.55,0-1-0.45-1-1v-4.107c0-0.55,0.45-1,1-1h4.387
				c0.55,0,1,0.45,1,1V39.441z"/>
		</g>
		<rect id="retangulo_interno_chart_9_" x="16.882" y="35.053" fill="#354E72" width="4.947" height="4.67"/>
	</g>
</g>
<g>
	<g id="button_1_3_">
		<g id="retangulo_externo_chart_10_">
			<path fill="#FFFFFF" d="M29.975,39.441c0,0.55-0.45,1-1,1h-4.387c-0.55,0-1-0.45-1-1v-4.107c0-0.55,0.45-1,1-1h4.387
				c0.55,0,1,0.45,1,1V39.441z"/>
		</g>
		<rect id="retangulo_interno_chart_8_" x="24.308" y="35.053" fill="#354E72" width="4.947" height="4.67"/>
	</g>
	<g id="button_2_3_">
		<g id="retangulo_externo_chart_9_">
			<path fill="#FFFFFF" d="M37.55,39.441c0,0.55-0.451,1-1,1h-4.387c-0.551,0-1-0.45-1-1v-4.107c0-0.55,0.449-1,1-1h4.387
				c0.549,0,1,0.45,1,1V39.441z"/>
		</g>
		<rect id="retangulo_interno_chart_7_" x="31.882" y="35.053" fill="#354E72" width="4.947" height="4.67"/>
	</g>
</g>
<g>
	<g id="button_1_12_">
		<g id="retangulo_externo_chart_26_">
			<path fill="#FFFFFF" d="M29.909,32.224c0,0.551-0.45,1-1,1h-4.387c-0.55,0-1-0.449-1-1v-4.107c0-0.55,0.45-1,1-1h4.387
				c0.55,0,1,0.45,1,1V32.224z"/>
		</g>
		<rect id="retangulo_interno_chart_24_" x="24.242" y="27.835" fill="#354E72" width="4.947" height="4.669"/>
	</g>
	<g id="button_2_10_">
		<g id="retangulo_externo_chart_25_">
			<path fill="#FFFFFF" d="M37.483,32.224c0,0.551-0.45,1-1,1h-4.387c-0.55,0-1-0.449-1-1v-4.107c0-0.55,0.45-1,1-1h4.387
				c0.55,0,1,0.45,1,1V32.224z"/>
		</g>
		<rect id="retangulo_interno_chart_23_" x="31.816" y="27.835" fill="#354E72" width="4.947" height="4.669"/>
	</g>
</g>
<g>
	<g id="button_1_11_">
		<g id="retangulo_externo_chart_24_">
			<path fill="#FFFFFF" d="M44.909,32.224c0,0.551-0.45,1-1,1h-4.387c-0.55,0-1-0.449-1-1v-4.107c0-0.55,0.45-1,1-1h4.387
				c0.55,0,1,0.45,1,1V32.224z"/>
		</g>
		<rect id="retangulo_interno_chart_22_" x="39.242" y="27.835" fill="#354E72" width="4.947" height="4.669"/>
	</g>
	<g id="button_2_9_">
		<g id="retangulo_externo_chart_23_">
			<path fill="#FFFFFF" d="M52.483,32.224c0,0.551-0.45,1-1,1h-4.387c-0.55,0-1-0.449-1-1v-4.107c0-0.55,0.45-1,1-1h4.387
				c0.55,0,1,0.45,1,1V32.224z"/>
		</g>
		<rect id="retangulo_interno_chart_21_" x="46.816" y="27.835" fill="#354E72" width="4.947" height="4.669"/>
	</g>
</g>
<g>
	<g id="button_1_10_">
		<g id="retangulo_externo_chart_22_">
			<path fill="#FFFFFF" d="M51.312,19.659c0.55,0,1,0.45,1,1v4.387c0,0.55-0.45,1-1,1h-4.107c-0.55,0-1-0.45-1-1v-4.387
				c0-0.55,0.45-1,1-1H51.312z"/>
		</g>
		<rect id="retangulo_interno_chart_20_" x="46.924" y="20.378" fill="#354E72" width="4.67" height="4.947"/>
	</g>
</g>
<g>
	<g id="button_1_9_">
		<g id="retangulo_externo_chart_21_">
			<path fill="#FFFFFF" d="M22.616,25.045c0,0.55-0.45,1-1,1h-4.387c-0.55,0-1-0.45-1-1v-4.107c0-0.55,0.45-1,1-1h4.387
				c0.55,0,1,0.45,1,1V25.045z"/>
		</g>
		<rect id="retangulo_interno_chart_19_" x="16.949" y="20.657" fill="#354E72" width="4.947" height="4.67"/>
	</g>
	<g id="button_2_8_">
		<g id="retangulo_externo_chart_20_">
			<path fill="#FFFFFF" d="M30.19,25.045c0,0.55-0.451,1-1,1h-4.387c-0.55,0-1-0.45-1-1v-4.107c0-0.55,0.45-1,1-1h4.387
				c0.549,0,1,0.45,1,1V25.045z"/>
		</g>
		<rect id="retangulo_interno_chart_18_" x="24.523" y="20.657" fill="#354E72" width="4.947" height="4.67"/>
	</g>
</g>
<g>
	<g id="button_1_8_">
		<g id="retangulo_externo_chart_19_">
			<path fill="#FFFFFF" d="M37.616,25.045c0,0.55-0.451,1-1,1h-4.387c-0.551,0-1-0.45-1-1v-4.107c0-0.55,0.449-1,1-1h4.387
				c0.549,0,1,0.45,1,1V25.045z"/>
		</g>
		<rect id="retangulo_interno_chart_17_" x="31.948" y="20.657" fill="#354E72" width="4.947" height="4.67"/>
	</g>
	<g id="button_2_2_">
		<g id="retangulo_externo_chart_3_">
			<path fill="#FFFFFF" d="M45.19,25.045c0,0.55-0.451,1-1,1h-4.387c-0.551,0-1-0.45-1-1v-4.107c0-0.55,0.449-1,1-1h4.387
				c0.549,0,1,0.45,1,1V25.045z"/>
		</g>
		<rect id="retangulo_interno_chart_5_" x="39.522" y="20.657" fill="#354E72" width="4.947" height="4.67"/>
	</g>
</g>
<g>
	<g id="button_3_3_">
		<g id="retangulo_externo_chart_27_">
			<path fill="#FFFFFF" d="M21.41,26.977c0.55,0,1,0.45,1,1v4.387c0,0.549-0.45,1-1,1h-4.107c-0.55,0-1-0.451-1-1v-4.387
				c0-0.55,0.45-1,1-1H21.41z"/>
		</g>
	</g>
</g>
<g>
	<g id="button_3_4_">
		<g id="retangulo_externo_chart_28_">
			<path fill="#FFFFFF" d="M13.835,41.374c0.55,0,1,0.449,1,1v4.387c0,0.549-0.45,1-1,1H9.728c-0.55,0-1-0.451-1-1v-4.387
				c0-0.551,0.45-1,1-1H13.835z"/>
		</g>
	</g>
</g>
<g>
	<g id="button_3_6_">
		<g id="retangulo_externo_chart_30_">
			<path fill="#FFFFFF" d="M13.835,27.256c0.55,0,1,0.45,1,1v4.386c0,0.551-0.45,1-1,1H9.728c-0.55,0-1-0.449-1-1v-4.386
				c0-0.55,0.45-1,1-1H13.835z"/>
		</g>
	</g>
</g>
<g>
	<g id="button_3_5_">
		<g id="retangulo_externo_chart_29_">
			<path fill="#FFFFFF" d="M13.835,19.938c0.55,0,1,0.45,1,1v4.387c0,0.55-0.45,1-1,1H9.728c-0.55,0-1-0.45-1-1v-4.387
				c0-0.55,0.45-1,1-1H13.835z"/>
		</g>
	</g>
</g>
<g>
	<g id="button_1_15_">
		<g id="retangulo_externo_chart_36_">
			<path fill="#FFFFFF" d="M51.312,12.659c0.55,0,1,0.45,1,1v4.387c0,0.55-0.45,1-1,1h-4.107c-0.55,0-1-0.45-1-1v-4.387
				c0-0.55,0.45-1,1-1H51.312z"/>
		</g>
		<rect id="retangulo_interno_chart_29_" x="46.924" y="13.378" fill="#354E72" width="4.67" height="4.947"/>
	</g>
</g>
<g>
	<g id="button_1_14_">
		<g id="retangulo_externo_chart_35_">
			<path fill="#FFFFFF" d="M22.616,18.045c0,0.55-0.451,1-1,1h-4.387c-0.55,0-1-0.45-1-1v-4.107c0-0.55,0.45-1,1-1h4.387
				c0.549,0,1,0.45,1,1V18.045z"/>
		</g>
		<rect id="retangulo_interno_chart_28_" x="16.949" y="13.657" fill="#354E72" width="4.947" height="4.67"/>
	</g>
	<g id="button_2_12_">
		<g id="retangulo_externo_chart_34_">
			<path fill="#FFFFFF" d="M30.19,18.045c0,0.55-0.451,1-1,1h-4.387c-0.551,0-1-0.45-1-1v-4.107c0-0.55,0.449-1,1-1h4.387
				c0.549,0,1,0.45,1,1V18.045z"/>
		</g>
		<rect id="retangulo_interno_chart_27_" x="24.522" y="13.657" fill="#354E72" width="4.947" height="4.67"/>
	</g>
</g>
<g>
	<g id="button_1_13_">
		<g id="retangulo_externo_chart_33_">
			<path fill="#FFFFFF" d="M37.616,18.045c0,0.55-0.451,1-1,1h-4.387c-0.551,0-1-0.45-1-1v-4.107c0-0.55,0.449-1,1-1h4.387
				c0.549,0,1,0.45,1,1V18.045z"/>
		</g>
		<rect id="retangulo_interno_chart_26_" x="31.948" y="13.657" fill="#354E72" width="4.947" height="4.67"/>
	</g>
	<g id="button_2_11_">
		<g id="retangulo_externo_chart_32_">
			<path fill="#FFFFFF" d="M45.19,18.045c0,0.55-0.451,1-1,1h-4.387c-0.551,0-1-0.45-1-1v-4.107c0-0.55,0.449-1,1-1h4.387
				c0.549,0,1,0.45,1,1V18.045z"/>
		</g>
		<rect id="retangulo_interno_chart_25_" x="39.522" y="13.657" fill="#354E72" width="4.947" height="4.67"/>
	</g>
</g>
<g>
	<g id="button_3_7_">
		<g id="retangulo_externo_chart_31_">
			<path fill="#FFFFFF" d="M13.835,12.938c0.55,0,1,0.45,1,1v4.387c0,0.55-0.45,1-1,1H9.728c-0.55,0-1-0.45-1-1v-4.387
				c0-0.55,0.45-1,1-1H13.835z"/>
		</g>
	</g>
</g>
</svg>
