<?xml version="1.0" encoding="utf-8"?>
<!-- Generator: Adobe Illustrator 15.0.0, SVG Export Plug-In . SVG Version: 6.00 Build 0)  -->
<!DOCTYPE svg PUBLIC "-//W3C//DTD SVG 1.1//EN" "http://www.w3.org/Graphics/SVG/1.1/DTD/svg11.dtd">
<svg version="1.1" id="Layer_1" xmlns="http://www.w3.org/2000/svg" xmlns:xlink="http://www.w3.org/1999/xlink" x="0px" y="0px"
	 width="61.439px" height="61.439px" viewBox="0 0 61.439 61.439" enable-background="new 0 0 61.439 61.439" xml:space="preserve">
<g id="tkt_1_">
	
		<rect x="26.955" y="7.407" transform="matrix(-0.948 0.3183 -0.3183 -0.948 82.9816 46.927)" fill="#FF9100" width="21.403" height="45.672"/>
	
		<rect x="26.992" y="7.442" transform="matrix(-0.948 0.3183 -0.3183 -0.948 83.0632 46.984)" fill="none" stroke="#FFFFFF" stroke-width="2" width="21.403" height="45.672"/>
	
		<rect x="31.417" y="20.73" transform="matrix(-0.948 0.3183 -0.3183 -0.948 88.0311 56.3849)" fill="#FFFFFF" width="15.985" height="29.31"/>
	
		<rect x="24.756" y="10.936" transform="matrix(-0.9479 0.3184 -0.3184 -0.9479 68.7432 19.8719)" fill="#FFFFFF" width="15.983" height="9.238"/>
	<g enable-background="new    ">
		<path fill="#3167B3" d="M45.79,44.543l0.858-0.446c0.153,0.254,0.267,0.49,0.339,0.707c0.119,0.354,0.152,0.648,0.101,0.883
			c-0.052,0.235-0.161,0.424-0.326,0.568c-0.165,0.144-0.556,0.319-1.171,0.525l-3.48,1.17l0.24,0.715l-0.798,0.269l-0.24-0.716
			l-1.499,0.503l-0.94-0.765l2.113-0.709l-0.329-0.98l0.798-0.268l0.329,0.98l3.538-1.188c0.293-0.099,0.475-0.179,0.547-0.241
			s0.12-0.141,0.143-0.234c0.023-0.094,0.011-0.214-0.038-0.358C45.937,44.848,45.877,44.71,45.79,44.543z"/>
		<path fill="#3167B3" d="M39.213,45.682l-1.18,0.396l-0.328-0.977l1.18-0.396L39.213,45.682z M46.385,43.274l-6.051,2.032
			l-0.328-0.977l6.051-2.032L46.385,43.274z"/>
		<path fill="#3167B3" d="M42.081,37.8l-0.191-1.004c0.73-0.128,1.365-0.042,1.903,0.258s0.912,0.764,1.123,1.393
			c0.265,0.789,0.207,1.512-0.173,2.174c-0.381,0.66-1.076,1.159-2.087,1.499c-0.653,0.219-1.259,0.309-1.818,0.267
			c-0.56-0.041-1.032-0.231-1.418-0.57c-0.387-0.338-0.663-0.756-0.829-1.252c-0.21-0.623-0.216-1.191-0.017-1.7
			c0.198-0.51,0.585-0.923,1.159-1.239l0.473,0.896c-0.377,0.227-0.629,0.488-0.757,0.787s-0.137,0.611-0.028,0.937
			c0.165,0.491,0.484,0.828,0.958,1.011c0.474,0.184,1.111,0.14,1.912-0.129c0.813-0.273,1.354-0.619,1.623-1.04
			c0.27-0.419,0.323-0.868,0.163-1.345c-0.129-0.384-0.359-0.662-0.692-0.836C43.051,37.731,42.617,37.696,42.081,37.8z"/>
		<path fill="#3167B3" d="M43.693,35.257l-8.353,2.804l-0.328-0.977l4.764-1.599l-3.237-1.482l-0.424-1.264l2.983,1.447l2.992-3.702
			l0.404,1.204l-2.455,2.942l0.927,0.454l2.398-0.805L43.693,35.257z"/>
		<path fill="#3167B3" d="M38.558,26.422l-0.207-1.052c0.672-0.049,1.251,0.084,1.738,0.399c0.486,0.316,0.841,0.808,1.065,1.477
			c0.282,0.842,0.234,1.601-0.146,2.277c-0.379,0.676-1.061,1.18-2.044,1.51c-1.018,0.342-1.892,0.356-2.621,0.048
			c-0.73-0.311-1.229-0.863-1.495-1.659c-0.259-0.77-0.194-1.491,0.192-2.164c0.387-0.672,1.08-1.176,2.079-1.512
			c0.061-0.021,0.152-0.05,0.274-0.087l1.442,4.294c0.653-0.258,1.102-0.609,1.347-1.049c0.245-0.441,0.287-0.901,0.126-1.381
			c-0.12-0.358-0.322-0.631-0.604-0.817C39.425,26.519,39.041,26.425,38.558,26.422z M37.976,30.182l-1.079-3.215
			c-0.495,0.214-0.835,0.465-1.021,0.753c-0.291,0.444-0.354,0.913-0.187,1.408c0.15,0.448,0.434,0.772,0.852,0.972
			C36.959,30.3,37.437,30.328,37.976,30.182z"/>
		<path fill="#3167B3" d="M38.125,21.712l0.858-0.445c0.152,0.254,0.266,0.49,0.339,0.707c0.118,0.354,0.151,0.647,0.1,0.882
			c-0.052,0.236-0.161,0.425-0.326,0.568c-0.165,0.145-0.555,0.32-1.17,0.527l-3.481,1.169l0.24,0.715l-0.798,0.268l-0.24-0.715
			l-1.498,0.503l-0.941-0.764l2.113-0.709l-0.329-0.981l0.798-0.268l0.329,0.981l3.538-1.188c0.293-0.098,0.475-0.179,0.547-0.241
			c0.072-0.062,0.12-0.14,0.144-0.235c0.022-0.094,0.01-0.213-0.039-0.359C38.271,22.017,38.211,21.879,38.125,21.712z"/>
	</g>
</g>
<g id="tkt_esq">
	
		<rect x="11.731" y="9.439" transform="matrix(-0.958 -0.2868 0.2868 -0.958 34.6664 69.6288)" fill="#FF9100" stroke="#FFFFFF" stroke-width="2" width="21.402" height="45.673"/>
	
		<rect x="12.896" y="22.785" transform="matrix(-0.958 -0.2869 0.2869 -0.958 30.1572 79.2993)" fill="#FFFFFF" width="15.984" height="29.31"/>
	<g enable-background="new    ">
		<path fill="#3167B3" d="M20.815,48.6l0.958,0.132c-0.021,0.296-0.066,0.553-0.132,0.772c-0.107,0.357-0.249,0.618-0.428,0.779
			c-0.178,0.162-0.375,0.254-0.594,0.275c-0.217,0.022-0.638-0.059-1.26-0.245l-3.519-1.054l-0.217,0.723l-0.806-0.241l0.217-0.723
			l-1.514-0.454l-0.328-1.167l2.136,0.64l0.297-0.991l0.806,0.241l-0.297,0.992l3.576,1.07c0.296,0.088,0.49,0.128,0.586,0.119
			c0.095-0.01,0.179-0.046,0.252-0.109c0.073-0.064,0.133-0.169,0.176-0.314C20.759,48.935,20.788,48.788,20.815,48.6z"/>
		<path fill="#3167B3" d="M14.783,45.737l-1.192-0.357l0.296-0.986l1.192,0.357L14.783,45.737z M22.032,47.908l-6.115-1.831
			l0.296-0.986l6.115,1.831L22.032,47.908z"/>
		<path fill="#3167B3" d="M21.676,40.953l0.422-0.931c0.671,0.316,1.139,0.752,1.406,1.308c0.267,0.556,0.305,1.151,0.115,1.786
			c-0.239,0.797-0.705,1.355-1.396,1.676c-0.693,0.32-1.55,0.327-2.571,0.021c-0.659-0.197-1.206-0.475-1.639-0.831
			c-0.434-0.356-0.71-0.784-0.83-1.284s-0.104-0.999,0.045-1.5c0.189-0.632,0.511-1.099,0.968-1.4
			c0.456-0.301,1.011-0.415,1.663-0.344l-0.132,1.006c-0.438-0.032-0.796,0.038-1.072,0.207c-0.277,0.17-0.464,0.42-0.562,0.748
			c-0.148,0.497-0.083,0.957,0.198,1.379c0.281,0.423,0.827,0.755,1.638,0.998c0.821,0.246,1.463,0.275,1.925,0.087
			c0.461-0.188,0.765-0.523,0.909-1.005c0.116-0.388,0.088-0.748-0.083-1.083C22.507,41.457,22.173,41.177,21.676,40.953z"/>
		<path fill="#3167B3" d="M24.46,39.803l-8.441-2.527l0.295-0.986l4.813,1.441l-1.788-3.079l0.382-1.276l1.603,2.903l4.58-1.297
			l-0.364,1.216l-3.703,0.987l0.495,0.906l2.424,0.726L24.46,39.803z"/>
		<path fill="#3167B3" d="M25.361,29.626l0.438-0.979c0.576,0.348,0.974,0.791,1.189,1.329c0.214,0.539,0.222,1.146,0.02,1.821
			c-0.255,0.851-0.733,1.443-1.434,1.777c-0.699,0.333-1.547,0.351-2.541,0.053c-1.029-0.308-1.752-0.798-2.168-1.473
			c-0.419-0.675-0.506-1.413-0.266-2.217c0.233-0.778,0.701-1.33,1.405-1.657c0.704-0.326,1.562-0.338,2.571-0.036
			c0.062,0.019,0.153,0.048,0.274,0.089l-1.3,4.34c0.683,0.164,1.252,0.137,1.706-0.081s0.755-0.57,0.9-1.056
			c0.107-0.361,0.1-0.7-0.022-1.016C26.011,30.204,25.755,29.906,25.361,29.626z M22.717,32.362l0.973-3.249
			c-0.527-0.11-0.95-0.102-1.269,0.026c-0.493,0.195-0.814,0.542-0.965,1.042c-0.135,0.453-0.091,0.882,0.135,1.285
			C21.818,31.871,22.193,32.17,22.717,32.362z"/>
		<path fill="#3167B3" d="M27.725,25.527l0.957,0.132c-0.021,0.295-0.065,0.553-0.131,0.773c-0.107,0.357-0.249,0.617-0.429,0.779
			c-0.177,0.162-0.375,0.254-0.593,0.276c-0.218,0.022-0.638-0.06-1.26-0.246l-3.519-1.054l-0.217,0.723l-0.806-0.241l0.217-0.724
			l-1.514-0.453l-0.329-1.167l2.136,0.64l0.298-0.992l0.806,0.242l-0.298,0.992l3.576,1.071c0.296,0.088,0.491,0.128,0.586,0.119
			s0.179-0.046,0.252-0.11c0.074-0.063,0.133-0.168,0.177-0.314C27.668,25.863,27.698,25.715,27.725,25.527z"/>
	</g>
	
		<rect x="22.265" y="9.408" transform="matrix(0.2867 -0.958 0.958 0.2867 2.5055 38.1656)" fill="#FFFFFF" width="9.236" height="15.984"/>
	<g enable-background="new    ">
		<path fill="#3167B3" d="M22.561,15.979c-0.38-0.253-0.636-0.529-0.767-0.827c-0.131-0.298-0.147-0.612-0.048-0.943
			c0.15-0.5,0.491-0.856,1.023-1.067c0.531-0.212,1.156-0.211,1.871,0.003c0.718,0.215,1.244,0.562,1.578,1.042
			c0.333,0.479,0.425,0.969,0.275,1.469c-0.095,0.319-0.278,0.566-0.549,0.742c-0.271,0.176-0.63,0.267-1.076,0.272
			c0.464,0.289,0.782,0.626,0.954,1.011c0.172,0.385,0.194,0.791,0.067,1.214c-0.176,0.588-0.572,1.007-1.189,1.258
			c-0.618,0.251-1.333,0.254-2.145,0.011c-0.812-0.243-1.406-0.64-1.784-1.19s-0.476-1.125-0.296-1.726
			c0.134-0.446,0.38-0.78,0.742-1S22.027,15.938,22.561,15.979z M21.511,17.564c-0.072,0.241-0.073,0.494-0.004,0.76
			c0.069,0.266,0.219,0.501,0.452,0.705c0.233,0.204,0.504,0.353,0.815,0.446c0.483,0.145,0.92,0.134,1.312-0.031
			c0.391-0.165,0.647-0.448,0.767-0.848c0.122-0.405,0.061-0.79-0.184-1.152c-0.244-0.362-0.609-0.616-1.096-0.762
			c-0.476-0.143-0.909-0.13-1.299,0.039C21.884,16.889,21.629,17.171,21.511,17.564z M22.787,14.49
			c-0.098,0.325-0.051,0.628,0.137,0.91c0.189,0.281,0.485,0.481,0.885,0.602c0.389,0.116,0.738,0.11,1.049-0.021
			c0.309-0.13,0.509-0.344,0.598-0.641c0.092-0.309,0.042-0.607-0.151-0.896c-0.193-0.287-0.48-0.488-0.862-0.603
			c-0.386-0.115-0.736-0.108-1.053,0.022C23.074,13.993,22.873,14.202,22.787,14.49z"/>
		<path fill="#3167B3" d="M27.299,17.765c0.243-0.812,0.539-1.436,0.887-1.871c0.348-0.435,0.761-0.729,1.236-0.878
			c0.476-0.151,1.012-0.137,1.611,0.042c0.443,0.132,0.806,0.323,1.095,0.571c0.289,0.248,0.5,0.544,0.633,0.889
			s0.202,0.736,0.205,1.174c0.004,0.439-0.097,0.999-0.301,1.679c-0.241,0.807-0.535,1.427-0.883,1.863
			c-0.346,0.436-0.757,0.73-1.233,0.882c-0.476,0.151-1.015,0.137-1.618-0.043c-0.793-0.238-1.345-0.661-1.656-1.271
			C26.905,20.068,26.912,19.055,27.299,17.765z M28.337,18.076c-0.338,1.128-0.404,1.927-0.2,2.395s0.539,0.771,1.002,0.91
			c0.465,0.139,0.911,0.068,1.339-0.212c0.429-0.28,0.812-0.983,1.148-2.107c0.339-1.131,0.405-1.93,0.2-2.396
			c-0.205-0.467-0.543-0.77-1.015-0.912c-0.464-0.139-0.884-0.086-1.258,0.16C29.08,16.227,28.675,16.949,28.337,18.076z"/>
	</g>
</g>
</svg>
