<?xml version="1.0" encoding="utf-8"?>
<!-- Generator: Adobe Illustrator 16.0.0, SVG Export Plug-In . SVG Version: 6.00 Build 0)  -->
<!DOCTYPE svg PUBLIC "-//W3C//DTD SVG 1.1//EN" "http://www.w3.org/Graphics/SVG/1.1/DTD/svg11.dtd">
<svg version="1.1" id="Layer_1" xmlns="http://www.w3.org/2000/svg" xmlns:xlink="http://www.w3.org/1999/xlink" x="0px" y="0px"
	 width="61.439px" height="61.439px" viewBox="0 0 61.439 61.439" enable-background="new 0 0 61.439 61.439" xml:space="preserve">
<path fill="#FFFFFF" d="M58.11,24.202l-3.879-1.752c-0.242,0.65-0.703,1.224-1.367,1.572c-1.431,0.757-3.198,0.209-3.955-1.222
	c-0.472-0.893-0.433-1.921,0.012-2.75l-2.325-0.784c-0.78,0-1.09,0.561-0.766,1.094c0.262,0.425,0.846,0.591,1.312,0.609
	L35.265,52.224c1.378-0.558,2.975-0.01,3.683,1.331c0.321,0.607,0.395,1.277,0.274,1.904l3.951,1.787
	c1.215,0.549,2.66,0.004,3.209-1.211l10.693-23.662c-0.355-0.037-0.692-0.229-0.871-0.566c-0.287-0.545-0.079-1.217,0.467-1.504
	c0.425-0.227,0.928-0.135,1.26,0.174l1.385-3.062C59.867,26.195,59.323,24.752,58.11,24.202z M47.308,27.907
	c-0.543,0.287-1.215,0.082-1.502-0.465c-0.285-0.542-0.078-1.216,0.464-1.502c0.543-0.286,1.219-0.08,1.502,0.464
	C48.06,26.949,47.853,27.621,47.308,27.907z M50.592,29.367c-0.544,0.289-1.215,0.077-1.501-0.462
	c-0.288-0.542-0.08-1.216,0.463-1.503c0.543-0.286,1.216-0.077,1.502,0.464C51.343,28.409,51.136,29.082,50.592,29.367z
	 M54.095,30.801c-0.543,0.285-1.215,0.078-1.502-0.463c-0.286-0.545-0.079-1.216,0.463-1.503c0.543-0.288,1.218-0.078,1.504,0.464
	C54.846,29.84,54.64,30.514,54.095,30.801z"/>
<path fill="#FF9100" d="M46.905,10.572l-5.186-1.97c-0.263,0.867-0.817,1.647-1.652,2.157c-1.8,1.096-4.147,0.525-5.242-1.274
	c-0.688-1.125-0.718-2.465-0.208-3.58l-5.112-1.941c-1.627-0.618-3.46,0.204-4.079,1.828l-1.672,4.408
	c0.302,0.106,0.581,0.296,0.761,0.593c0.416,0.684,0.201,1.572-0.483,1.99c-0.407,0.249-0.879,0.249-1.291,0.082L10.884,44.061
	c-0.616,1.625,0.209,3.462,1.832,4.075l5.211,1.979c0.293-0.433,0.679-0.813,1.153-1.102c1.8-1.1,4.148-0.528,5.245,1.271
	c0.463,0.763,0.614,1.629,0.509,2.452l5.282,2.009c1.626,0.617,3.459-0.208,4.078-1.83l12.019-31.636
	c-0.467-0.019-0.918-0.239-1.18-0.664c-0.417-0.687-0.2-1.579,0.483-1.996c0.54-0.325,1.198-0.25,1.658,0.126l1.557-4.094
	C49.35,13.024,48.531,11.19,46.905,10.572z M28.718,14.553c-0.684,0.417-1.575,0.199-1.991-0.482
	c-0.415-0.684-0.2-1.575,0.483-1.992c0.686-0.417,1.576-0.197,1.992,0.483C29.619,13.244,29.404,14.138,28.718,14.553z
	 M33.149,16.254c-0.684,0.417-1.573,0.201-1.99-0.482c-0.416-0.684-0.201-1.576,0.482-1.992c0.684-0.417,1.575-0.2,1.99,0.483
	C34.05,14.947,33.833,15.838,33.149,16.254z M37.537,17.892c-0.684,0.417-1.577,0.198-1.991-0.482
	c-0.416-0.684-0.201-1.576,0.481-1.992C36.713,15,37.604,15.219,38.02,15.9C38.435,16.585,38.22,17.475,37.537,17.892z
	 M42.207,19.475c-0.682,0.416-1.575,0.198-1.988-0.483c-0.418-0.686-0.202-1.575,0.481-1.992c0.683-0.417,1.576-0.198,1.993,0.483
	C43.111,18.165,42.892,19.057,42.207,19.475z"/>
<path fill="#E8E8E8" d="M11.828,48.47c-1.623-0.613-2.448-2.449-1.832-4.074l11.855-31.197c0.022,0.009,0.046,0.012,0.069,0.02
	c-0.16-1.333-1.366-2.301-2.704-2.158l-4.299,0.458c0.123,0.694,0.011,1.435-0.391,2.083c-0.864,1.396-2.697,1.828-4.094,0.963
	c-0.873-0.542-1.369-1.462-1.409-2.416l-4.241,0.451c-1.349,0.144-2.333,1.363-2.189,2.711l0.388,3.655
	c0.249-0.033,0.51,0,0.738,0.143c0.531,0.328,0.695,1.023,0.366,1.555c-0.195,0.318-0.523,0.484-0.869,0.513l2.755,25.879
	c0.144,1.346,1.367,2.334,2.712,2.188l4.039-0.432L11.828,48.47z M17.17,17.719c0.328-0.532,1.027-0.695,1.556-0.367
	c0.531,0.328,0.694,1.025,0.364,1.557c-0.327,0.53-1.023,0.694-1.554,0.366S16.842,18.25,17.17,17.719z M13.363,18.266
	c0.328-0.531,1.025-0.694,1.555-0.366c0.53,0.327,0.695,1.024,0.366,1.554c-0.328,0.531-1.026,0.694-1.555,0.367
	C13.199,19.493,13.033,18.798,13.363,18.266z M7.972,20.242c-0.329,0.531-1.024,0.692-1.554,0.365
	c-0.53-0.329-0.695-1.026-0.367-1.556s1.024-0.692,1.556-0.366C8.138,19.015,8.303,19.712,7.972,20.242z M9.733,18.673
	c0.33-0.53,1.025-0.694,1.555-0.365c0.532,0.328,0.695,1.023,0.365,1.555c-0.327,0.531-1.023,0.696-1.555,0.366
	C9.568,19.9,9.403,19.205,9.733,18.673z"/>
</svg>
