<?xml version="1.0" encoding="utf-8"?>
<!-- Generator: Adobe Illustrator 15.0.0, SVG Export Plug-In . SVG Version: 6.00 Build 0)  -->
<!DOCTYPE svg PUBLIC "-//W3C//DTD SVG 1.1//EN" "http://www.w3.org/Graphics/SVG/1.1/DTD/svg11.dtd">
<svg version="1.1" id="contatos" xmlns="http://www.w3.org/2000/svg" xmlns:xlink="http://www.w3.org/1999/xlink" x="0px" y="0px"
	 width="61.439px" height="61.439px" viewBox="0 0 61.439 61.439" enable-background="new 0 0 61.439 61.439" xml:space="preserve">
<rect id="bg" x="0" y="0" display="none" fill="#3E96FF" width="61.439" height="61.439"/>
<g id="user">
	<path fill="#FFFFFF" d="M31.349,30.077c-5.863,0-10.62,4.758-10.62,10.621c0,1.956,1.583,3.54,3.54,3.54H38.43
		c1.956,0,3.54-1.584,3.54-3.54C41.97,34.835,37.214,30.077,31.349,30.077z"/>
	<circle fill="#FFFFFF" cx="31.349" cy="22.112" r="5.31"/>
</g>
<g id="caderno">
	<path fill="#FFFFFF" d="M43.735,9.055H17.021c-3.354,0-6.09,3.187-6.09,7.096v0.933h4.383v-4.012h30.128v35.295H15.314v-2.681
		h0.123v-0.979h-5.322v0.979h0.834c0.179,3.718,2.833,6.697,6.072,6.697h26.714c3.354,0,6.09-3.194,6.09-7.095V16.151
		C49.825,12.242,47.089,9.055,43.735,9.055z"/>
	<polygon fill="#FFFFFF" points="10.931,25.382 15.314,25.382 15.314,19.538 15.437,19.538 15.437,18.56 10.115,18.56 
		10.115,19.538 10.931,19.538 	"/>
	<polygon fill="#FFFFFF" points="10.931,43.283 15.314,43.283 15.314,36.709 15.437,36.709 15.437,35.73 10.115,35.73 
		10.115,36.709 10.931,36.709 	"/>
	<polygon fill="#FFFFFF" points="10.931,34.305 15.314,34.305 15.314,27.662 15.437,27.662 15.437,26.683 10.115,26.683 
		10.115,27.662 10.931,27.662 	"/>
</g>
</svg>
