<?xml version="1.0" encoding="utf-8"?>
<!-- Generator: Adobe Illustrator 15.0.0, SVG Export Plug-In . SVG Version: 6.00 Build 0)  -->
<!DOCTYPE svg PUBLIC "-//W3C//DTD SVG 1.1//EN" "http://www.w3.org/Graphics/SVG/1.1/DTD/svg11.dtd">
<svg version="1.1" id="Layer_1" xmlns="http://www.w3.org/2000/svg" xmlns:xlink="http://www.w3.org/1999/xlink" x="0px" y="0px"
	 width="61.439px" height="61.439px" viewBox="0 0 61.439 61.439" enable-background="new 0 0 61.439 61.439" xml:space="preserve">
<rect id="bg" x="0" y="0" fill="#3E96FF" width="61.439" height="61.439"/>
<g>
	<g>
		<g id="button_1_1_">
			<g id="retangulo_externo_chart_6_">
				<path fill="#FFFFFF" d="M49.825,45.289c0,3.9-2.736,7.095-6.09,7.095H17.021c-3.354,0-6.09-3.194-6.09-7.095V16.151
					c0-3.909,2.736-7.096,6.09-7.096h26.714c3.354,0,6.09,3.187,6.09,7.096V45.289z"/>
			</g>
			<rect id="retangulo_interno_chart_4_" x="15.314" y="13.072" fill="#3E96FF" width="30.128" height="35.295"/>
		</g>
	</g>
	<g id="user">
		<g>
			<path fill="#FFFFFF" d="M31.349,30.077c-5.863,0-10.62,4.758-10.62,10.621c0,1.956,1.583,3.54,3.54,3.54H38.43
				c1.956,0,3.54-1.584,3.54-3.54C41.97,34.835,37.214,30.077,31.349,30.077z"/>
			<circle fill="#FFFFFF" cx="31.349" cy="22.112" r="5.31"/>
		</g>
	</g>
	<g>
		<g id="button_1_4_">
			<g id="retangulo_externo_chart_4_">
				<path fill="#3E96FF" d="M16.844,18.685c0,0.172-0.535,0.313-1.19,0.313h-5.218c-0.655,0-1.189-0.142-1.189-0.313v-1.287
					c0-0.173,0.534-0.314,1.189-0.314h5.218c0.656,0,1.19,0.142,1.19,0.314V18.685z"/>
			</g>
		</g>
	</g>
	<g>
		<g id="button_1_2_">
			<g id="retangulo_externo_chart_1_">
				<path fill="#3E96FF" d="M16.844,44.882c0,0.174-0.535,0.314-1.19,0.314h-5.218c-0.655,0-1.189-0.141-1.189-0.314v-1.286
					c0-0.173,0.534-0.313,1.189-0.313h5.218c0.656,0,1.19,0.141,1.19,0.313V44.882z"/>
			</g>
		</g>
	</g>
	<g>
		<g id="button_1_3_">
			<g id="retangulo_externo_chart_2_">
				<path fill="#3E96FF" d="M16.844,26.982c0,0.173-0.535,0.313-1.19,0.313h-5.218c-0.655,0-1.189-0.141-1.189-0.313v-1.287
					c0-0.173,0.534-0.313,1.189-0.313h5.218c0.656,0,1.19,0.141,1.19,0.313V26.982z"/>
			</g>
		</g>
	</g>
	<g>
		<g id="button_1_5_">
			<g id="retangulo_externo_chart_3_">
				<path fill="#3E96FF" d="M16.844,35.906c0,0.172-0.535,0.313-1.19,0.313h-5.218c-0.655,0-1.189-0.142-1.189-0.313v-1.287
					c0-0.173,0.534-0.314,1.189-0.314h5.218c0.656,0,1.19,0.142,1.19,0.314V35.906z"/>
			</g>
		</g>
	</g>
	<rect x="10.115" y="18.56" fill="#FFFFFF" width="5.322" height="0.978"/>
	<rect x="10.115" y="26.683" fill="#FFFFFF" width="5.322" height="0.979"/>
	<rect x="10.115" y="35.73" fill="#FFFFFF" width="5.322" height="0.979"/>
	<rect x="10.115" y="44.707" fill="#FFFFFF" width="5.322" height="0.979"/>
</g>
</svg>
