<?xml version="1.0" encoding="utf-8"?>
<!-- Generator: Adobe Illustrator 15.0.0, SVG Export Plug-In . SVG Version: 6.00 Build 0)  -->
<!DOCTYPE svg PUBLIC "-//W3C//DTD SVG 1.1//EN" "http://www.w3.org/Graphics/SVG/1.1/DTD/svg11.dtd">
<svg version="1.1" id="Layer_1" xmlns="http://www.w3.org/2000/svg" xmlns:xlink="http://www.w3.org/1999/xlink" x="0px" y="0px"
	 width="61.439px" height="61.439px" viewBox="0 0 61.439 61.439" enable-background="new 0 0 61.439 61.439" xml:space="preserve">
<rect id="screen" x="8.751" y="16.299" fill="#FFFFFF" width="43.938" height="18.427"/>
<rect id="frame_screen" x="5.208" y="12.756" fill="none" stroke="#FFFFFF" stroke-width="2" stroke-miterlimit="10" width="51.023" height="25.514"/>
<rect id="base_neck" x="21.966" y="38.267" fill="none" stroke="#FFFFFF" stroke-width="2" stroke-miterlimit="10" width="17.51" height="7.708"/>
<rect id="base" x="10.878" y="45.975" fill="none" stroke="#FFFFFF" stroke-width="2" stroke-miterlimit="10" width="39.686" height="3.122"/>
<g enable-background="new    ">
	<path fill="#FFA300" d="M5.42,33.928c0.622-0.521,1.7-1.203,2.815-1.763c1.616-0.812,2.797-1.056,3.877-0.807
		c0.894,0.157,1.676,0.695,2.17,1.68c0.616,1.227,0.33,2.696-0.737,3.814l0.028,0.056c1.329-0.318,3.217-0.033,4.15,1.825
		c0.542,1.077,0.535,2.129,0.183,3.05c-0.453,1.229-1.679,2.311-3.724,3.337c-1.115,0.561-2.007,0.915-2.584,1.11L5.42,33.928z
		 M9.613,38.247l1.469-0.738c1.69-0.85,2.236-2.264,1.63-3.472c-0.729-1.45-2.123-1.494-3.759-0.672
		c-0.743,0.373-1.143,0.644-1.374,0.829L9.613,38.247z M12.619,44.23c0.361-0.112,0.817-0.317,1.394-0.606
		c1.673-0.84,2.907-2.229,1.992-4.049c-0.849-1.691-2.682-1.68-4.447-0.793l-1.338,0.672L12.619,44.23z"/>
	<path fill="#FFA300" d="M25.211,32.089l-4.851,2.436l2.268,4.516l5.427-2.725l0.682,1.356l-7.062,3.547l-6.291-12.526l6.783-3.407
		l0.682,1.357L17.7,29.228l1.988,3.958l4.851-2.436L25.211,32.089z"/>
	<path fill="#FFA300" d="M27.913,24.122l-3.81,1.913l-0.69-1.375l9.273-4.658l0.691,1.375l-3.829,1.923l5.601,11.15l-1.636,0.821
		L27.913,24.122z"/>
	<path fill="#FFA300" d="M39.026,27.57l0.678,4.594l-1.673,0.84L36.014,18.33l1.933-0.971l10.566,10.379l-1.729,0.868l-3.316-3.268
		L39.026,27.57z M42.517,24.234l-3.057-2.98c-0.689-0.677-1.249-1.328-1.798-1.958l-0.037,0.019
		c0.178,0.817,0.384,1.691,0.506,2.584l0.594,4.24L42.517,24.234z"/>
	<path fill="#FFA300" d="M52.587,21.202l-4.75-8.81l1.785-0.896l4.229,9.07L52.587,21.202z M53.447,24.074
		c-0.336-0.669-0.114-1.386,0.537-1.713c0.65-0.327,1.32-0.058,1.656,0.611c0.327,0.65,0.151,1.366-0.536,1.712
		C54.472,25.002,53.774,24.724,53.447,24.074z"/>
</g>
</svg>
