<?xml version="1.0" encoding="utf-8"?>
<!-- Generator: Adobe Illustrator 15.0.0, SVG Export Plug-In . SVG Version: 6.00 Build 0)  -->
<!DOCTYPE svg PUBLIC "-//W3C//DTD SVG 1.1//EN" "http://www.w3.org/Graphics/SVG/1.1/DTD/svg11.dtd">
<svg version="1.1" id="Layer_1" xmlns="http://www.w3.org/2000/svg" xmlns:xlink="http://www.w3.org/1999/xlink" x="0px" y="0px"
	 width="61.439px" height="61.439px" viewBox="0 0 61.439 61.439" enable-background="new 0 0 61.439 61.439" xml:space="preserve">
<rect id="screen" x="8.751" y="16.299" fill="#FFFFFF" width="43.938" height="18.427"/>
<rect id="frame_screen" x="5.208" y="12.756" fill="none" stroke="#FFFFFF" stroke-width="2" stroke-miterlimit="10" width="51.023" height="25.514"/>
<rect id="base_neck" x="21.966" y="38.267" fill="none" stroke="#FFFFFF" stroke-width="2" stroke-miterlimit="10" width="17.51" height="7.708"/>
<rect id="base" x="10.878" y="45.975" fill="none" stroke="#FFFFFF" stroke-width="2" stroke-miterlimit="10" width="39.686" height="3.122"/>
<g enable-background="new    ">
	<path fill="#FF9700" d="M27.309,25.117v4.633c0,0.341,0.016,0.729,0.032,0.99h-0.618l-0.032-0.665h-0.024
		c-0.206,0.428-0.665,0.752-1.291,0.752c-0.927,0-1.647-0.784-1.647-1.948c-0.008-1.274,0.792-2.051,1.719-2.051
		c0.594,0,0.982,0.277,1.156,0.578h0.016v-2.289H27.309z M26.62,28.468c0-0.088-0.008-0.206-0.032-0.293
		c-0.103-0.436-0.483-0.8-1.005-0.8c-0.721,0-1.148,0.633-1.148,1.473c0,0.776,0.388,1.417,1.132,1.417
		c0.467,0,0.895-0.316,1.021-0.831c0.024-0.095,0.032-0.19,0.032-0.301V28.468z"/>
	<path fill="#FF9700" d="M28.861,28.95c0.016,0.942,0.61,1.331,1.314,1.331c0.499,0,0.808-0.088,1.062-0.198l0.127,0.499
		c-0.246,0.11-0.674,0.245-1.284,0.245c-1.18,0-1.885-0.784-1.885-1.94s0.681-2.059,1.798-2.059c1.259,0,1.583,1.093,1.583,1.798
		c0,0.143-0.008,0.245-0.023,0.324H28.861z M30.904,28.451c0.008-0.436-0.182-1.124-0.966-1.124c-0.712,0-1.014,0.642-1.069,1.124
		H30.904z"/>
	<path fill="#FF9700" d="M32.344,30.035c0.214,0.127,0.578,0.27,0.927,0.27c0.499,0,0.736-0.245,0.736-0.57
		c0-0.332-0.198-0.507-0.704-0.697c-0.697-0.253-1.021-0.625-1.021-1.084c0-0.618,0.506-1.125,1.322-1.125
		c0.388,0,0.729,0.103,0.934,0.237l-0.166,0.507c-0.15-0.095-0.428-0.229-0.783-0.229c-0.412,0-0.635,0.237-0.635,0.522
		c0,0.317,0.223,0.46,0.721,0.657c0.658,0.246,1.006,0.578,1.006,1.148c0,0.682-0.53,1.156-1.426,1.156
		c-0.419,0-0.807-0.11-1.076-0.27L32.344,30.035z"/>
	<path fill="#FF9700" d="M36.264,28.665h0.016c0.096-0.135,0.223-0.301,0.333-0.436l1.132-1.322h0.832l-1.473,1.576l1.687,2.257
		h-0.855l-1.314-1.837l-0.356,0.396v1.441h-0.689v-5.623h0.689V28.665z"/>
	<path fill="#FF9700" d="M40.128,25.988v0.919h0.998v0.53h-0.998v2.067c0,0.476,0.135,0.744,0.523,0.744
		c0.189,0,0.301-0.016,0.404-0.047l0.031,0.53c-0.135,0.048-0.349,0.095-0.617,0.095c-0.325,0-0.587-0.11-0.753-0.293
		c-0.19-0.214-0.27-0.554-0.27-1.006v-2.091h-0.594v-0.53h0.594v-0.713L40.128,25.988z"/>
	<path fill="#FF9700" d="M45.331,28.792c0,1.418-0.99,2.035-1.908,2.035c-1.029,0-1.838-0.76-1.838-1.972
		c0-1.275,0.848-2.027,1.9-2.027C44.587,26.828,45.331,27.628,45.331,28.792z M42.298,28.832c0,0.839,0.475,1.473,1.156,1.473
		c0.665,0,1.164-0.626,1.164-1.489c0-0.649-0.324-1.465-1.148-1.465C42.654,27.35,42.298,28.111,42.298,28.832z"/>
	<path fill="#FF9700" d="M46.21,28.158c0-0.49-0.016-0.887-0.032-1.251h0.618l0.039,0.657h0.016
		c0.277-0.467,0.736-0.736,1.362-0.736c0.935,0,1.632,0.784,1.632,1.94c0,1.378-0.848,2.059-1.75,2.059
		c-0.508,0-0.951-0.222-1.181-0.602h-0.016v2.083H46.21V28.158z M46.898,29.179c0,0.104,0.008,0.198,0.032,0.285
		c0.126,0.483,0.546,0.816,1.045,0.816c0.736,0,1.164-0.603,1.164-1.481c0-0.76-0.404-1.417-1.141-1.417
		c-0.475,0-0.926,0.332-1.053,0.854c-0.023,0.088-0.048,0.19-0.048,0.277V29.179z"/>
</g>
<g id="cloud">
	<path fill="#FFFFFF" stroke="#FF9700" stroke-width="2" d="M28.65,9.263c-0.864-6.615-7.074-9.255-11.946-7.237
		c-3.676,1.522-5.013,4.882-5.292,8.64C8.638,8.417,2.921,11.21,5.26,15.632c-2.828,1.604-3.788,4.365-2.989,6.956
		c2.278,7.393,11.242,2.726,19.17,0.192c4.246-1.357,8.586-2.468,11.318-3.617C39.567,16.302,35.973,6.429,28.65,9.263z"/>
	<g enable-background="new    ">
		<path fill="#FF9700" d="M7.293,20.314c-0.139-0.44-0.265-0.816-0.397-1.157l0.596-0.187l0.264,0.733l0.023-0.008
			c0.013-0.555,0.33-1.004,0.787-1.147c0.068-0.022,0.125-0.03,0.189-0.042l0.201,0.642c-0.074,0.006-0.144,0.028-0.236,0.058
			c-0.479,0.15-0.708,0.612-0.641,1.151c0.014,0.099,0.043,0.216,0.076,0.324l0.626,1.994L8.1,22.888L7.293,20.314z"/>
		<path fill="#FF9700" d="M10.384,20.253c0.305,0.915,1.003,1.112,1.691,0.896c0.486-0.153,0.762-0.332,0.975-0.519l0.277,0.448
			c-0.206,0.184-0.582,0.445-1.178,0.632c-1.152,0.362-2.08-0.187-2.434-1.316c-0.354-1.129,0.033-2.22,1.123-2.562
			c1.229-0.386,1.881,0.582,2.098,1.271c0.043,0.139,0.067,0.242,0.075,0.324L10.384,20.253z M12.225,19.139
			c-0.126-0.427-0.522-1.042-1.287-0.802c-0.696,0.219-0.794,0.938-0.699,1.426L12.225,19.139z"/>
		<path fill="#FF9700" d="M13.573,18.174c-0.124-0.395-0.236-0.699-0.349-1.003l0.595-0.187l0.223,0.602l0.023-0.007
			c0.097-0.422,0.341-0.864,0.967-1.061c0.502-0.158,0.986,0.031,1.287,0.421l0.016-0.005c0.048-0.253,0.153-0.456,0.271-0.621
			c0.172-0.24,0.382-0.409,0.737-0.521c0.503-0.158,1.339-0.063,1.746,1.236l0.689,2.195l-0.665,0.208l-0.662-2.11
			c-0.229-0.727-0.633-1.066-1.174-0.896c-0.394,0.124-0.598,0.502-0.62,0.865c0.001,0.11,0.015,0.232,0.054,0.356l0.725,2.312
			l-0.665,0.209l-0.703-2.241c-0.187-0.596-0.583-0.938-1.101-0.775c-0.418,0.131-0.628,0.57-0.629,0.944
			c-0.01,0.104,0.013,0.233,0.049,0.35l0.706,2.249l-0.664,0.208L13.573,18.174z"/>
		<path fill="#FF9700" d="M23.671,15.914c0.435,1.384-0.343,2.29-1.24,2.571c-1.004,0.315-2.025-0.179-2.396-1.362
			c-0.391-1.244,0.205-2.239,1.234-2.562C22.343,14.224,23.314,14.777,23.671,15.914z M20.721,16.881
			c0.258,0.82,0.916,1.292,1.581,1.084c0.649-0.204,0.944-0.968,0.68-1.81c-0.198-0.634-0.766-1.331-1.569-1.079
			C20.616,15.326,20.501,16.178,20.721,16.881z"/>
		<path fill="#FF9700" d="M24.493,12.65l0.281,0.896l0.974-0.306l0.163,0.518l-0.975,0.306l0.634,2.019
			c0.146,0.464,0.359,0.686,0.738,0.566c0.186-0.059,0.289-0.108,0.38-0.171l0.193,0.509c-0.117,0.086-0.312,0.199-0.574,0.281
			c-0.317,0.1-0.605,0.071-0.824-0.056c-0.251-0.149-0.433-0.458-0.571-0.898l-0.641-2.042l-0.579,0.182l-0.162-0.518l0.579-0.182
			l-0.218-0.695L24.493,12.65z"/>
		<path fill="#FF9700" d="M27.473,14.89c0.305,0.915,1.003,1.111,1.691,0.896c0.486-0.152,0.762-0.331,0.975-0.519l0.277,0.449
			c-0.206,0.184-0.582,0.446-1.178,0.632c-1.152,0.361-2.079-0.188-2.434-1.316s0.033-2.219,1.123-2.561
			c1.23-0.386,1.881,0.582,2.098,1.271c0.043,0.139,0.067,0.242,0.076,0.324L27.473,14.89z M29.315,13.777
			c-0.126-0.428-0.521-1.042-1.287-0.802c-0.695,0.218-0.793,0.938-0.699,1.425L29.315,13.777z"/>
	</g>
</g>
</svg>
