<?xml version="1.0" encoding="utf-8"?>
<!-- Generator: Adobe Illustrator 15.0.0, SVG Export Plug-In . SVG Version: 6.00 Build 0)  -->
<!DOCTYPE svg PUBLIC "-//W3C//DTD SVG 1.1//EN" "http://www.w3.org/Graphics/SVG/1.1/DTD/svg11.dtd">
<svg version="1.1" id="Layer_1" xmlns="http://www.w3.org/2000/svg" xmlns:xlink="http://www.w3.org/1999/xlink" x="0px" y="0px"
	 width="61.439px" height="61.439px" viewBox="0 0 61.439 61.439" enable-background="new 0 0 61.439 61.439" xml:space="preserve">
<rect id="bg" x="0" y="0" fill="#3E96FF" width="61.439" height="61.439"/>
<g id="chart">
	<g id="retangulo_externo_chart">
		<path fill="#FFFFFF" d="M26.629,36.823c0,0.551-0.45,1-1,1H6.144c-0.55,0-1-0.449-1-1V13.445c0-0.55,0.45-1,1-1h19.485
			c0.55,0,1,0.45,1,1V36.823z"/>
	</g>
	<rect id="retangulo_interno_chart" x="5.864" y="13.165" fill="#3E96FF" width="20.046" height="23.939"/>
	<circle id="chart_1_" fill="#FFFFFF" cx="15.101" cy="27.375" r="7.307"/>
	<path id="chart_pizza_slice" fill="#FFFFFF" stroke="#3E96FF" d="M24,22.368c-3.509,0.812-7.996,1.854-7.996,1.854l-1.902-8.21l0,0
		C14.102,16.012,22.201,14.609,24,22.368z"/>
</g>
<g id="control_bar_2">
	<g id="control_bar_3_1_">
		<path fill="#FFFFFF" d="M56.039,33.691c0,0.551-0.45,1-1,1H30.951c-0.551,0-1-0.449-1-1v-7.645c0-0.55,0.449-1,1-1h24.088
			c0.55,0,1,0.45,1,1V33.691z"/>
	</g>
	<rect id="control_bar_interno_3_1_" x="30.72" y="25.768" fill="#3E96FF" width="24.598" height="8.205"/>
	<rect id="control_bar_2_selector" x="46.4" y="25.458" fill="#FFFFFF" width="1.037" height="8.821"/>
</g>
<g id="control_bar_3_3_">
	<g id="control_bar_3">
		<path fill="#FFFFFF" d="M56.039,46.038c0,0.55-0.45,1-1,1H30.951c-0.551,0-1-0.45-1-1v-7.646c0-0.55,0.449-1,1-1h24.088
			c0.55,0,1,0.45,1,1V46.038z"/>
	</g>
	<rect id="control_bar_interno_3" x="30.72" y="38.114" fill="#3E96FF" width="24.598" height="8.205"/>
	<rect id="control_bar_3_selector" x="40.365" y="37.806" fill="#FFFFFF" width="1.036" height="8.822"/>
</g>
<g id="control_bar_1">
	<g id="control_bar_3_2_">
		<path fill="#FFFFFF" d="M56.039,21.09c0,0.55-0.45,1-1,1H30.951c-0.551,0-1-0.45-1-1v-7.646c0-0.55,0.449-1,1-1h24.088
			c0.55,0,1,0.45,1,1V21.09z"/>
	</g>
	<rect id="control_bar_interno_3_2_" x="30.72" y="13.166" fill="#3E96FF" width="24.598" height="8.205"/>
	<rect id="control_bar_1_selector" x="37.092" y="12.856" fill="#FFFFFF" width="1.037" height="8.822"/>
</g>
<g>
	<g id="button_1">
		<g id="retangulo_externo_chart_1_">
			<path fill="#FFFFFF" d="M11.506,46.037c0,0.55-0.45,1-1,1H6.119c-0.551,0-1-0.45-1-1V41.93c0-0.55,0.449-1,1-1h4.387
				c0.55,0,1,0.45,1,1V46.037z"/>
		</g>
		<rect id="retangulo_interno_chart_1_" x="5.839" y="41.648" fill="#3E96FF" width="4.947" height="4.67"/>
	</g>
	<g id="button_2">
		<g id="retangulo_externo_chart_2_">
			<path fill="#FFFFFF" d="M19.08,46.037c0,0.55-0.45,1-1,1h-4.388c-0.55,0-1-0.45-1-1V41.93c0-0.55,0.45-1,1-1h4.388
				c0.55,0,1,0.45,1,1V46.037z"/>
		</g>
		<rect id="retangulo_interno_chart_2_" x="13.413" y="41.648" fill="#3E96FF" width="4.946" height="4.67"/>
	</g>
	<g id="button_3">
		<g id="retangulo_externo_chart_3_">
			<path fill="#FFFFFF" d="M26.592,46.037c0,0.55-0.45,1-1,1h-4.387c-0.551,0-1-0.45-1-1V41.93c0-0.55,0.449-1,1-1h4.387
				c0.55,0,1,0.45,1,1V46.037z"/>
		</g>
	</g>
</g>
</svg>
