<?xml version="1.0" encoding="utf-8"?>
<!-- Generator: Adobe Illustrator 15.0.0, SVG Export Plug-In . SVG Version: 6.00 Build 0)  -->
<!DOCTYPE svg PUBLIC "-//W3C//DTD SVG 1.1//EN" "http://www.w3.org/Graphics/SVG/1.1/DTD/svg11.dtd">
<svg version="1.1" id="Layer_1" xmlns="http://www.w3.org/2000/svg" xmlns:xlink="http://www.w3.org/1999/xlink" x="0px" y="0px"
	 width="61.439px" height="61.439px" viewBox="0 0 61.439 61.439" enable-background="new 0 0 61.439 61.439" xml:space="preserve">
<g id="chart">
	<path fill="#FFFFFF" stroke="#FFFFFF" d="M25.258,10.444H5.773c-0.55,0-1,0.45-1,1v23.378c0,0.551,0.45,1,1,1h19.483
		c0.552,0,1-0.449,1-1V11.444C26.258,10.894,25.808,10.444,25.258,10.444z M25.539,35.103H5.493V11.164h20.046V35.103z"/>
	<path fill="#FFFFFF" d="M15.031,22.045l-1.141-4.926c-3.641,0.417-6.469,3.504-6.469,7.255c0,4.036,3.271,7.309,7.309,7.309
		c4.035,0,7.307-3.271,7.307-7.309c0-1.358-0.378-2.627-1.023-3.717C18.011,21.353,15.031,22.045,15.031,22.045z"/>
	<path id="chart_pizza_slice_1_" fill="#FFFFFF" d="M22.594,19.392c-3.005,0.695-6.848,1.588-6.848,1.588l-1.628-7.03l0,0
		C14.119,13.95,21.054,12.749,22.594,19.392z"/>
</g>
<g id="control_bar_2">
	<path fill="#FFFFFF" stroke="#FFFFFF" d="M56.039,25.046H31.951c-0.551,0-1,0.45-1,1v7.646c0,0.551,0.449,1,1,1h24.088
		c0.55,0,1-0.449,1-1v-7.646C57.039,25.496,56.589,25.046,56.039,25.046z M56.318,33.973H31.72v-8.205h24.598V33.973z"/>
	<rect id="control_bar_2_selector" x="47.4" y="25.458" fill="#FFFFFF" stroke="#FFFFFF" width="1.037" height="8.821"/>
</g>
<g id="control_bar_3_3_">
	<path fill="#FFFFFF" stroke="#FFFFFF" d="M56.039,39.392H31.951c-0.551,0-1,0.448-1,1v7.646c0,0.55,0.449,1,1,1h24.088
		c0.55,0,1-0.45,1-1v-7.646C57.039,39.842,56.589,39.392,56.039,39.392z M56.318,48.319H31.72v-8.205h24.598V48.319z"/>
	<rect id="control_bar_3_selector" x="41.365" y="39.806" fill="#FFFFFF" stroke="#FFFFFF" width="1.036" height="8.82"/>
</g>
<g id="control_bar_1">
	<path fill="#FFFFFF" stroke="#FFFFFF" d="M56.039,10.444H31.951c-0.551,0-1,0.45-1,1v7.646c0,0.552,0.449,1,1,1h24.088
		c0.55,0,1-0.448,1-1v-7.646C57.039,10.894,56.589,10.444,56.039,10.444z M56.318,19.371H31.72v-8.205h24.598V19.371z"/>
	<rect id="control_bar_1_selector" x="38.092" y="10.856" fill="#FFFFFF" stroke="#FFFFFF" width="1.037" height="8.822"/>
</g>
<g>
	<path fill="#FFFFFF" stroke="#FFFFFF" d="M9.75,43.509H5.778c-0.499,0-0.906,0.407-0.906,0.905v3.719
		c0,0.498,0.407,0.905,0.906,0.905H9.75c0.499,0,0.905-0.407,0.905-0.905v-3.719C10.655,43.916,10.248,43.509,9.75,43.509z
		 M10.003,48.387H5.524v-4.229h4.479V48.387z"/>
	<path fill="#FFFFFF" stroke="#FFFFFF" d="M17.53,43.509h-3.973c-0.498,0-0.905,0.407-0.905,0.905v3.719
		c0,0.498,0.407,0.905,0.905,0.905h3.973c0.498,0,0.906-0.407,0.906-0.905v-3.719C18.435,43.916,18.028,43.509,17.53,43.509z
		 M17.782,48.387h-4.478v-4.229h4.478V48.387z"/>
	<g id="button_3">
		<path fill="#FFFFFF" stroke="#FFFFFF" d="M26.158,48.133c0,0.498-0.407,0.905-0.906,0.905H21.28c-0.499,0-0.905-0.407-0.905-0.905
			v-3.719c0-0.498,0.406-0.905,0.905-0.905h3.972c0.499,0,0.906,0.407,0.906,0.905V48.133z"/>
	</g>
</g>
</svg>
