<?xml version="1.0" encoding="utf-8"?>
<!-- Generator: Adobe Illustrator 16.0.0, SVG Export Plug-In . SVG Version: 6.00 Build 0)  -->
<!DOCTYPE svg PUBLIC "-//W3C//DTD SVG 1.1//EN" "http://www.w3.org/Graphics/SVG/1.1/DTD/svg11.dtd">
<svg version="1.1" id="Layer_1" xmlns="http://www.w3.org/2000/svg" xmlns:xlink="http://www.w3.org/1999/xlink" x="0px" y="0px"
	 width="61.439px" height="61.439px" viewBox="0 0 61.439 61.439" enable-background="new 0 0 61.439 61.439" xml:space="preserve">
<g>
	<path fill="#FFFFFF" d="M56.686,49.073c-0.581,1.219-1.741,1.117-2.472,2.002c-0.252-0.271,0.306-0.867,0.376-1.264
		c-12.576-4.379-25.226-8.949-37.89-13.541c7.857-0.459,15.843-0.623,23.761-0.951c3.891,3.08,7.962,6.105,11.631,9.281
		c0.594,0.205,0.187,0.816,0.3,1.215C54.006,46.825,54.97,48.102,56.686,49.073z M49.561,46.052
		c1.309-0.014,1.929,0.812,2.604-0.484c-0.725-0.279-3.26-2.416-3.449-2.895C48.431,43.46,49.698,45.294,49.561,46.052z"/>
	<path fill="#FFFFFF" d="M11.941,41.755c1.419-1.674,2.805-3.447,4.25-5.057c0.791,0.311,1.574,0.621,2.366,0.932
		c-1.653,1.676-3.49,2.926-5.166,4.535c0.057,2.129,0.321,5.35,0.196,6.809C12.985,46.589,12.736,44.063,11.941,41.755z"/>
	<path fill="#FFFFFF" d="M20.971,52.981c0.567,0.105,0.594,0.428,1.058,0.576c-0.478,0.602-1.414,1.135-2.162,1.646
		c-0.703,0.488-1.584,1.406-1.931,1.121C19.008,55.35,19.91,53.977,20.971,52.981z"/>
	<path fill="#FFFFFF" d="M22.722,53.827c0.461,0.186,0.927,0.361,1.39,0.549c-1.786,0.926-3.731,1.473-5.543,2.352
		C19.508,55.788,21.454,54.882,22.722,53.827z"/>
	<path fill="#E8E8E8" d="M4.753,18.952v6.596c9.627,1.646,19.193,3.316,28.602,5.094c1.635,0.306,3.395,0.994,5.02,0.409
		C27.143,26.964,15.945,22.952,4.753,18.952z"/>
	<path fill="#FFFFFF" d="M12.448,45.546c-0.269-1.201-1.301-3.145-0.942-4.281c0.595-1.91,3.072-2.768,4.051-4.975
		c-3.612,0.057-7.246,0.055-10.804,0.234v6.65c1.554,2.047,3.058,4.07,4.237,5.545c0.412,0.516,1.394,0.857,1.188,1.414
		c-0.116,0.316-2.195,0.781-2.486,0.891c-0.989,0.365-1.884,0.531-2.21,1.012c1.812,0.016,4.277-1.451,6.444-1.059
		c2.196,0.391,4.154,1.854,6.473,2.711c-0.302,0.977-1.129,2.156-1.104,3.004c1.081-1.305,2.111-2.725,3.264-3.877
		c-2.458-0.967-4.913-1.938-7.368-2.904C12.899,48.577,12.806,47.167,12.448,45.546z"/>
	<path fill="#E8E8E8" d="M7.351,4.711H4.753v4.347c8.32,4.236,16.636,8.456,24.938,12.624c3.935,1.974,7.622,4.463,11.89,5.632
		C30.339,19.785,18.885,12.249,7.351,4.711z"/>
	<path fill="#E8E8E8" d="M20.703,4.711h-9.788c11.019,7.617,22.023,15.238,32.974,22.883c-0.535,0.622-1.029,1.341-1.767,1.493
		C29.638,22.97,17.191,16.84,4.753,10.705v7.142c11.893,4.417,23.74,8.847,35.373,13.277c-0.95,1.503-2.581,0.843-3.992,0.611
		c-10.266-1.683-21.079-3.058-31.381-4.673v8.632c11.932-0.41,23.854-0.838,35.766-1.289c3.194-2.193,6.405-4.343,9.587-6.546
		C40.285,20.151,30.5,12.428,20.703,4.711z"/>
</g>
</svg>
