<?xml version="1.0" encoding="utf-8"?>
<!-- Generator: Adobe Illustrator 15.0.0, SVG Export Plug-In . SVG Version: 6.00 Build 0)  -->
<!DOCTYPE svg PUBLIC "-//W3C//DTD SVG 1.1//EN" "http://www.w3.org/Graphics/SVG/1.1/DTD/svg11.dtd">
<svg version="1.1" id="files" xmlns="http://www.w3.org/2000/svg" xmlns:xlink="http://www.w3.org/1999/xlink" x="0px" y="0px"
	 width="61.426px" height="61.426px" viewBox="0 0 61.426 61.426" enable-background="new 0 0 61.426 61.426" xml:space="preserve">
<path id="gaveta_1" fill-rule="evenodd" clip-rule="evenodd" fill="#FFFFFF" d="M16.339,11.843
	c9.922,0.063,20.098-0.126,29.862,0.095c0,3.709,0,7.417,0,11.126c-10.018,0-20.035,0-30.052,0c0-3.646,0-7.291,0-10.937
	C16.145,11.966,16.22,11.882,16.339,11.843z M34.218,15.932c-0.994-0.718-5.432-0.546-6.181,0.095
	c-0.755,0.646-0.546,1.854-0.57,3.138c0.903-0.578,2.728-1.122,4.565-0.951c0.925,0.086,1.742,0.394,2.282,0.666
	c0.128,0.064,0.421,0.484,0.57,0.19C34.779,17.798,35.2,16.64,34.218,15.932z"/>
<path id="gaveta_2" fill-rule="evenodd" clip-rule="evenodd" fill="#FFFFFF" d="M16.245,24.967c9.985,0,19.97,0,29.957,0
	c0,3.741,0,7.481,0,11.222c-10.018,0-20.035,0-30.052,0c0-3.646,0-7.291,0-10.937C16.141,25.117,16.134,24.983,16.245,24.967z
	 M34.884,30.007c-0.276-0.559-0.817-1.209-1.616-1.332c-1.594-0.243-4.892-0.113-5.516,0.761c-0.185,0.259-0.035,0.443-0.285,0.571
	c0,0.761,0,1.521,0,2.282c0.887-0.626,2.785-1.125,4.66-0.951c0.957,0.09,1.74,0.468,2.282,0.761
	c0.053,0.028,0.438,0.381,0.476,0.096C34.884,31.465,34.884,30.736,34.884,30.007z"/>
<path id="gaveta_3" fill-rule="evenodd" clip-rule="evenodd" fill="#FFFFFF" d="M16.245,38.09c9.985,0,19.97,0,29.957,0
	c0,3.709,0,7.418,0,11.127c-9.796,0.222-20.003,0.032-29.957,0.095c-0.222-3.455-0.032-7.321-0.095-10.936
	C16.141,38.24,16.134,38.107,16.245,38.09z M34.884,43.131c-0.473-1.37-1.717-1.332-3.899-1.332c-2.027,0-3.147,0.108-3.519,1.332
	c0,0.761,0,1.521,0,2.282c1.272-1.244,5.27-1.142,6.847-0.285c0.129,0.07,0.451,0.453,0.57,0.189
	C34.884,44.589,34.884,43.86,34.884,43.131z"/>
<path id="armario" fill-rule="evenodd" clip-rule="evenodd" fill="#FF9100" d="M15.483,6.232c10.461,0,20.922,0,31.383,0
	c1.98,0.377,3.85,1.69,4.565,3.614c0.854,2.295,0.38,7.303,0.38,10.366c0,7.083,0,14.103,0,21.302c0,3.421,0.397,7.915-0.57,10.081
	c-0.798,1.785-2.349,2.939-4.375,3.328c-10.461,0-20.922,0-31.383,0c-2.02-0.378-3.745-1.67-4.469-3.424
	c-0.896-2.169-0.476-6.68-0.476-10.08c0-6.801,0-14.453,0-21.303c0-3.339-0.486-7.813,0.38-10.271
	C11.597,7.924,13.722,6.495,15.483,6.232z M14.342,15.647c0,2.138,0,3.938,0,5.04c0,8.191,0,17.048,0,25.202
	c0,1.829-0.135,4.034,0.38,4.659c0.999,1.212,5.678,0.666,7.894,0.666c6.242,0,10.807,0,17.118,0c2.299,0,6.898,0.54,7.893-0.666
	c0.586-0.71,0.381-3.116,0.381-4.659c0-8.917,0-17.187,0-25.582c0-2.216,0.504-8.798-0.476-9.795
	c-0.889-0.904-4.503-0.57-7.418-0.57c-5.712,0-10.545,0-15.977,0c-2.497,0-5.968-0.301-8.083,0.095
	C13.796,10.459,14.342,12.773,14.342,15.647z"/>
</svg>
