<?xml version="1.0" encoding="utf-8"?>
<!-- Generator: Adobe Illustrator 16.0.0, SVG Export Plug-In . SVG Version: 6.00 Build 0)  -->
<!DOCTYPE svg PUBLIC "-//W3C//DTD SVG 1.1//EN" "http://www.w3.org/Graphics/SVG/1.1/DTD/svg11.dtd">
<svg version="1.1" id="Layer_1" xmlns="http://www.w3.org/2000/svg" xmlns:xlink="http://www.w3.org/1999/xlink" x="0px" y="0px"
	 width="61.439px" height="61.439px" viewBox="0 0 61.439 61.439" enable-background="new 0 0 61.439 61.439" xml:space="preserve">
<g>
	<rect id="bg" x="9.788" y="5.027" fill="#FFFFFF" width="41.863" height="51.385"/>
	<g>
		<rect x="15.673" y="30.887" fill="#FF9100" width="30.096" height="1.168"/>
		<rect x="15.673" y="37.211" fill="#FF9100" width="30.096" height="1.168"/>
		<rect x="15.673" y="43.535" fill="#FF9100" width="30.096" height="1.168"/>
		<rect x="15.673" y="49.858" fill="#FF9100" width="30.096" height="1.168"/>
		<path fill="#FF9100" d="M15.673,10.413v15.319h30.096V10.413H15.673z M21.928,23.329v0.853h-0.517v-0.82
			c-0.476-0.008-0.957-0.156-1.245-0.359l0.195-0.55c0.287,0.188,0.713,0.353,1.173,0.353c0.581,0,0.975-0.337,0.975-0.804
			c0-0.452-0.317-0.729-0.925-0.976c-0.838-0.328-1.353-0.712-1.353-1.426c0-0.682,0.482-1.197,1.229-1.318v-0.82h0.517v0.795
			c0.482,0.017,0.818,0.147,1.063,0.286l-0.205,0.542c-0.172-0.1-0.508-0.288-1.03-0.288c-0.632,0-0.869,0.376-0.869,0.712
			c0,0.418,0.305,0.633,1.016,0.936c0.845,0.344,1.271,0.763,1.271,1.492C23.224,22.591,22.773,23.197,21.928,23.329z M31.18,23.129
			v1.687H30.16v-1.621c-0.94-0.018-1.896-0.309-2.463-0.712l0.39-1.086c0.568,0.372,1.41,0.696,2.316,0.696
			c1.151,0,1.928-0.667,1.928-1.589c0-0.891-0.633-1.443-1.83-1.929c-1.652-0.649-2.675-1.409-2.675-2.82
			c0-1.345,0.958-2.366,2.431-2.608v-1.621h1.021v1.572c0.956,0.032,1.62,0.292,2.106,0.568l-0.406,1.069
			c-0.339-0.195-1.006-0.567-2.042-0.567c-1.247,0-1.72,0.746-1.72,1.409c0,0.828,0.602,1.248,2.011,1.848
			c1.67,0.683,2.514,1.507,2.514,2.95C33.742,21.672,32.848,22.87,31.18,23.129z M39.977,23.329v0.853h-0.517v-0.82
			c-0.477-0.008-0.958-0.156-1.246-0.359l0.195-0.55c0.287,0.188,0.713,0.353,1.173,0.353c0.581,0,0.977-0.337,0.977-0.804
			c0-0.452-0.319-0.729-0.927-0.976c-0.838-0.328-1.352-0.712-1.352-1.426c0-0.682,0.482-1.197,1.229-1.318v-0.82h0.518v0.795
			c0.481,0.017,0.818,0.147,1.062,0.286l-0.203,0.542c-0.174-0.1-0.51-0.288-1.032-0.288c-0.631,0-0.868,0.376-0.868,0.712
			c0,0.418,0.304,0.633,1.016,0.936c0.845,0.344,1.271,0.763,1.271,1.492C41.272,22.591,40.821,23.197,39.977,23.329z"/>
	</g>
</g>
</svg>
