<?xml version="1.0" encoding="utf-8"?>
<!-- Generator: Adobe Illustrator 16.0.0, SVG Export Plug-In . SVG Version: 6.00 Build 0)  -->
<!DOCTYPE svg PUBLIC "-//W3C//DTD SVG 1.1//EN" "http://www.w3.org/Graphics/SVG/1.1/DTD/svg11.dtd">
<svg version="1.1" id="user" xmlns="http://www.w3.org/2000/svg" xmlns:xlink="http://www.w3.org/1999/xlink" x="0px" y="0px"
	 width="61.426px" height="61.426px" viewBox="0 0 61.426 61.426" enable-background="new 0 0 61.426 61.426" xml:space="preserve">
<g id="white">
	<circle fill="#FFFFFF" cx="40.413" cy="11.438" r="5.207"/>
	<path fill="#FFFFFF" d="M41.136,20.116c-0.814,0-1.603,0.103-2.363,0.28c0.166,0.612,0.263,1.252,0.263,1.916
		c0,4.038-3.154,8.615-8.348,7.824c-0.03,0.321,0.048,0.666,0.064,0.799c0.593,0.51,1.145,0.905,1.444,1.903
		c1.307-0.034,3.384,0.224,4.754,1.161h11.129c1.918,0,3.473-1.555,3.473-3.472C51.549,24.78,46.885,20.116,41.136,20.116z"/>
</g>
<g id="gray">
	<path fill="#E8E8E8" d="M30.033,32.785c0.503,0,0.921-0.016,1.41,0.034c-0.438-1.461-1.35-1.581-2.27-2.752
		c-2.647-0.205-4.64-2.4-5.747-4.675c-1.087-0.324-2.237-0.504-3.429-0.504c-6.625,0-12,5.375-12,12c0,2.211,1.789,4,4,4h5.235
		C19.734,36.417,24.547,32.785,30.033,32.785z"/>
	<path fill="#E8E8E8" d="M25.854,16.178c0.091-0.416,0.143-0.847,0.143-1.29c0-3.313-2.687-6-6-6s-6,2.687-6,6s2.687,6,6,6
		c1.096,0,2.12-0.298,3.004-0.812C23.486,18.475,24.507,17.107,25.854,16.178z"/>
</g>
<g id="orange">
	<path fill="#FF9100" d="M31,33.5c-8.074,0-14.625,6.551-14.625,14.625c0,2.693,2.181,4.875,4.875,4.875h19.5
		c2.693,0,4.875-2.182,4.875-4.875C45.625,40.051,39.074,33.5,31,33.5z"/>
	<circle fill="#FF9100" cx="31" cy="22.312" r="7.312"/>
</g>
</svg>
